<svg width="646" height="301" viewBox="0 0 646 301" fill="none" xmlns="http://www.w3.org/2000/svg">
<path d="M352.54 267.5C354.95 279.98 347.03 292.12 334.63 294.92C320.83 298.04 302.71 300.31 281.7 300.31C181.02 300.31 129.17 237.65 129.17 154.69C129.17 55.31 200.04 0 288.19 0C307.5 0 324.19 2.20998 337.15 5.22998C349.98 8.21998 357.81 21.21 354.54 33.97L352.71 41.1C349.53 53.52 337 61.05 324.51 58.16C314.82 55.92 303.7 54.44 291.21 54.44C238.92 54.44 198.31 85.98 198.31 150.8C198.31 209.13 232.88 245.86 291.64 245.86C302.29 245.86 313.56 244.62 323.72 242.67C336.5 240.22 348.87 248.52 351.34 261.3L352.54 267.49V267.5Z" fill="#26044F"/>
<path d="M58.52 221.06C30.39 221.06 7.5 198.17 7.5 170.04C7.5 143.48 27.9 121.59 53.86 119.23C55.36 92.43 77.64 71.0901 104.8 71.0901C120.49 71.0901 135.22 78.3601 144.82 90.4601C151.78 86.7801 159.52 84.86 167.56 84.86C189.22 84.86 207.91 98.92 214.17 119.1C240.96 120.6 262.3 142.88 262.3 170.04C262.3 197.2 239.41 221.06 211.28 221.06H58.53H58.52Z" fill="#5D3FD3"/>
<path d="M104.8 78.5901C121.05 78.5901 135.21 87.4901 142.69 100.68C149.61 95.4601 158.22 92.36 167.56 92.36C187.97 92.36 204.93 107.16 208.28 126.62C209.27 126.55 210.27 126.52 211.28 126.52C235.32 126.52 254.8 146.01 254.8 170.04C254.8 194.07 235.31 213.56 211.28 213.56H58.53C34.49 213.56 15.01 194.07 15.01 170.04C15.01 146.01 34.5 126.52 58.53 126.52C59.53 126.52 60.53 126.56 61.52 126.62C61.37 125.14 61.29 123.63 61.29 122.11C61.29 98.07 80.78 78.5901 104.81 78.5901M104.8 63.5901C75.75 63.5901 51.58 84.8601 47.04 112.65C20.25 118 0 141.7 0 170.04C0 202.31 26.25 228.56 58.52 228.56H211.27C243.54 228.56 269.79 202.31 269.79 170.04C269.79 140.6 247.94 116.17 219.61 112.11C211.08 91.41 190.8 77.36 167.55 77.36C160.32 77.36 153.3 78.7101 146.75 81.3201C135.86 70.1501 120.77 63.5901 104.8 63.5901Z" fill="white"/>
<path d="M122.46 88.23C118.43 86.94 114.13 86.25 109.67 86.25C86.47 86.25 67.67 105.05 67.67 128.25C67.67 129.72 67.75 131.17 67.89 132.6C66.94 132.54 65.98 132.5 65.01 132.5C41.81 132.5 23.01 151.3 23.01 174.5C23.01 182.12 25.04 189.26 28.59 195.42C26.99 176.47 29.86 140.29 75.28 141.18C74.82 128.81 77.01 90.02 122.46 88.24V88.23Z" fill="#E7D4FF"/>
<path d="M79.5701 213.56H211.27C235.31 213.56 254.79 194.07 254.79 170.04C254.79 164.91 253.89 159.98 252.26 155.41C223.64 211.77 126.85 206.78 79.5601 213.56H79.5701Z" fill="#430E83"/>
<path d="M290.53 204.39C290.53 206.24 289.03 207.75 287.17 207.75H283.71C278.55 207.75 274.77 206.5 272.36 203.99C269.95 201.48 268.75 197.85 268.75 193.1V135.8C268.75 133.95 270.25 132.44 272.11 132.44H280.46C282.31 132.44 283.82 133.94 283.82 135.8V192.69C283.82 194.54 285.32 196.05 287.18 196.05C289.03 196.05 290.54 197.55 290.54 199.41V204.4L290.53 204.39Z" fill="#26044F"/>
<path d="M321.26 208.97C316.04 208.97 311.56 207.83 307.83 205.56C304.1 203.29 301.23 200.05 299.23 195.84C297.23 191.63 296.23 186.68 296.23 180.98C296.23 175.28 297.23 170.26 299.23 166.12C301.23 161.98 304.1 158.78 307.83 156.5C311.56 154.23 316.04 153.09 321.26 153.09C326.48 153.09 330.96 154.23 334.69 156.5C338.42 158.77 341.29 161.98 343.29 166.12C345.29 170.26 346.29 175.21 346.29 180.98C346.29 186.75 345.29 191.63 343.29 195.84C341.29 200.05 338.42 203.29 334.69 205.56C330.96 207.83 326.48 208.97 321.26 208.97ZM321.26 197.06C324.25 197.06 326.55 196.13 328.18 194.26C329.81 192.4 330.62 189.8 330.62 186.48V175.59C330.62 172.2 329.81 169.58 328.18 167.75C326.55 165.92 324.25 165 321.26 165C318.27 165 316.05 165.92 314.39 167.75C312.73 169.58 311.9 172.19 311.9 175.59V186.48C311.9 189.8 312.73 192.4 314.39 194.26C316.05 196.13 318.34 197.06 321.26 197.06Z" fill="#26044F"/>
<path d="M396.06 207.75C391.9 207.75 388.53 204.38 388.53 200.22V198.79H388.02C387.14 201.5 385.53 203.88 383.19 205.91C380.85 207.95 377.47 208.96 373.06 208.96C367.63 208.96 363.49 207.13 360.64 203.46C357.79 199.8 356.37 194.61 356.37 187.89V161.84C356.37 157.68 359.74 154.31 363.9 154.31C368.06 154.31 371.43 157.68 371.43 161.84V186.57C371.43 189.83 372.02 192.34 373.21 194.1C374.4 195.86 376.35 196.75 379.06 196.75C380.62 196.75 382.13 196.46 383.59 195.89C385.05 195.31 386.24 194.45 387.15 193.29C388.07 192.14 388.52 190.71 388.52 189.02V161.85C388.52 157.69 391.89 154.32 396.05 154.32C400.21 154.32 403.58 157.69 403.58 161.85V200.22C403.58 204.38 400.21 207.75 396.05 207.75H396.06Z" fill="#26044F"/>
<path d="M457.94 207.75C453.78 207.75 450.41 204.38 450.41 200.22V198.79H449.9C449.15 201.71 447.44 204.13 444.76 206.07C442.08 208 439.01 208.97 435.55 208.97C431.07 208.97 427.31 207.9 424.25 205.76C421.2 203.62 418.89 200.47 417.33 196.3C415.77 192.13 414.99 187.02 414.99 180.98C414.99 174.94 415.77 169.85 417.33 165.72C418.89 161.58 421.2 158.44 424.25 156.31C427.3 154.17 431.07 153.1 435.55 153.1C439.01 153.1 442.08 154.05 444.76 155.95C447.44 157.85 449.15 160.29 449.9 163.28H450.41V139.97C450.41 135.81 453.78 132.44 457.94 132.44C462.1 132.44 465.47 135.81 465.47 139.97V200.22C465.47 204.38 462.1 207.75 457.94 207.75ZM440.53 196.76C442.43 196.76 444.13 196.46 445.62 195.84C447.11 195.23 448.28 194.33 449.13 193.14C449.98 191.95 450.4 190.55 450.4 188.92V173.15C450.4 171.52 449.98 170.11 449.13 168.93C448.28 167.74 447.11 166.84 445.62 166.23C444.13 165.62 442.43 165.31 440.53 165.31C437.68 165.31 435.32 166.31 433.46 168.31C431.59 170.31 430.66 173.01 430.66 176.4V185.66C430.66 188.99 431.59 191.67 433.46 193.7C435.33 195.74 437.68 196.75 440.53 196.75V196.76Z" fill="#26044F"/>
<path d="M487.04 149.53C483.99 149.53 481.76 148.82 480.37 147.39C478.98 145.97 478.28 144.2 478.28 142.1V139.86C478.28 137.69 478.97 135.91 480.37 134.52C481.76 133.13 483.98 132.43 487.04 132.43C490.1 132.43 492.31 133.13 493.71 134.52C495.1 135.91 495.8 137.69 495.8 139.86V142.1C495.8 144.2 495.1 145.97 493.71 147.39C492.32 148.82 490.1 149.53 487.04 149.53ZM479.51 200.22V161.85C479.51 157.69 482.88 154.32 487.04 154.32C491.2 154.32 494.57 157.69 494.57 161.85V200.22C494.57 204.38 491.2 207.75 487.04 207.75C482.88 207.75 479.51 204.38 479.51 200.22Z" fill="#26044F"/>
<path d="M508.62 220.57V161.85C508.62 157.69 511.99 154.32 516.15 154.32C520.31 154.32 523.68 157.69 523.68 161.85V163.28H524.19C524.94 160.29 526.65 157.85 529.33 155.95C532.01 154.05 535.08 153.1 538.54 153.1C543.08 153.1 546.87 154.17 549.89 156.31C552.91 158.45 555.2 161.59 556.76 165.72C558.32 169.86 559.1 174.95 559.1 180.98C559.1 187.01 558.32 192.12 556.76 196.3C555.2 200.47 552.91 203.63 549.89 205.76C546.87 207.9 543.09 208.97 538.54 208.97C535.08 208.97 532.01 208 529.33 206.07C526.65 204.14 524.94 201.71 524.19 198.79H523.68V220.57C523.68 224.73 520.31 228.1 516.15 228.1C511.99 228.1 508.62 224.73 508.62 220.57ZM533.55 196.76C536.4 196.76 538.76 195.74 540.62 193.71C542.48 191.68 543.42 189 543.42 185.67V176.41C543.42 173.02 542.49 170.32 540.62 168.32C538.75 166.32 536.4 165.32 533.55 165.32C531.65 165.32 529.95 165.63 528.46 166.24C526.97 166.85 525.8 167.75 524.95 168.94C524.1 170.13 523.68 171.54 523.68 173.16V188.93C523.68 190.56 524.1 191.97 524.95 193.15C525.8 194.34 526.97 195.24 528.46 195.85C529.95 196.46 531.65 196.77 533.55 196.77V196.76Z" fill="#26044F"/>
<path d="M592.27 204.39C592.27 206.24 590.77 207.75 588.91 207.75H585.45C580.29 207.75 576.51 206.5 574.1 203.99C571.69 201.48 570.49 197.85 570.49 193.1V135.8C570.49 133.95 571.99 132.44 573.85 132.44H582.2C584.05 132.44 585.56 133.94 585.56 135.8V192.69C585.56 194.54 587.06 196.05 588.92 196.05C590.77 196.05 592.28 197.55 592.28 199.41V204.4L592.27 204.39Z" fill="#26044F"/>
<path d="M625.6 179.1L632.11 158.38C632.87 155.96 635.11 154.32 637.64 154.32H639.38C643.34 154.32 646.14 158.2 644.88 161.96L626.87 216C625.99 218.71 624.85 220.97 623.46 222.77C622.07 224.57 620.32 225.91 618.22 226.79C616.12 227.67 613.54 228.11 610.48 228.11H606.92C603.72 228.11 601.12 225.51 601.12 222.31V222.21C601.12 219.01 603.72 216.41 606.92 216.41C609.46 216.41 611.71 214.76 612.46 212.33V212.29C612.83 211.13 612.82 209.89 612.43 208.74L596.84 161.97C595.59 158.21 598.38 154.33 602.34 154.33H604.99C607.52 154.33 609.77 155.97 610.52 158.39L617.03 179.1C617.06 179.21 617.1 179.32 617.12 179.43L620.94 194.73H621.55L625.48 179.41C625.51 179.31 625.53 179.21 625.56 179.11L625.6 179.1Z" fill="#26044F"/>
</svg>
