<?xml version="1.0" encoding="UTF-8"?>
<svg xmlns="http://www.w3.org/2000/svg" version="1.1" viewBox="0 0 630.2 300.3">
  <!-- Generator: Adobe Illustrator 29.5.0, SVG Export Plug-In . SVG Version: 2.1.0 Build 137)  -->
  <g id="Ebene_12" display="none">
    <rect x="-24.1" y="-21.5" width="706.5" height="360.7"/>
  </g>
  <g id="_x34_8x48_favicon_dark" display="none">
    <g>
      <path d="M409.4,283c.4,2-.9,3.9-2.9,4.4s-5.1.9-8.5.9c-16.1,0-24.4-10-24.4-23.3s11.3-24.7,25.4-24.7,5.8.4,7.8.8c2.1.5,3.3,2.6,2.8,4.6l-.3,1.1c-.5,2-2.5,3.2-4.5,2.7-1.5-.4-3.3-.6-5.3-.6-8.4,0-14.8,5-14.8,15.4s5.5,15.2,14.9,15.2,3.5-.2,5.1-.5c2-.4,4,.9,4.4,3l.2,1Z" fill="#b5a3c8"/>
      <g>
        <g>
          <path d="M375.3,275.2c-4.3,0-7.8-3.5-7.8-7.8s3.3-7.6,7.4-7.8c0-4.2,3.6-7.7,7.8-7.7s4.8,1.2,6.3,3.2c1.1-.6,2.4-1,3.7-1,3.4,0,6.3,2.3,7.2,5.5,4.2.1,7.6,3.6,7.6,7.8s-3.5,7.8-7.8,7.8h-24.4Z" fill="#b2a4ff"/>
          <path d="M382.7,252.8c2.6,0,4.9,1.4,6.1,3.5,1.1-.8,2.5-1.3,4-1.3,3.3,0,6,2.4,6.5,5.5.2,0,.3,0,.5,0,3.8,0,7,3.1,7,7s-3.1,7-7,7h-24.4c-3.8,0-7-3.1-7-7s3.1-7,7-7,.3,0,.5,0c0-.2,0-.5,0-.7,0-3.8,3.1-7,7-7M382.7,251.1c-4.5,0-8.2,3.4-8.7,7.8-4.2.6-7.4,4.2-7.4,8.6s3.9,8.7,8.7,8.7h24.4c4.8,0,8.7-3.9,8.7-8.7s-3.4-8.2-7.8-8.7c-1.2-3.3-4.3-5.5-7.9-5.5s-2.4.3-3.5.8c-1.6-1.9-4-3-6.5-3h0Z" fill="#fff"/>
        </g>
        <path d="M385.5,254.3c-.6-.2-1.3-.3-2-.3-3.7,0-6.7,3-6.7,6.7s0,.5,0,.7c-.2,0-.3,0-.5,0-3.7,0-6.7,3-6.7,6.7s.3,2.4.9,3.3c-.3-3,.2-8.8,7.5-8.7,0-2,.3-8.2,7.5-8.5h0Z" fill="#e7d4ff"/>
        <path d="M378.7,274.4h21.1c3.8,0,7-3.1,7-7s-.1-1.6-.4-2.3c-4.6,9-20,8.2-27.6,9.3h0Z" fill="#4b4e87"/>
      </g>
    </g>
  </g>
  <g id="_x34_8x48_favicon" display="none">
    <g>
      <path d="M234.3,238.4c.4,2-.9,3.9-2.9,4.4s-5.1.9-8.5.9c-16.1,0-24.4-10-24.4-23.3s11.3-24.7,25.4-24.7,5.8.4,7.8.8c2.1.5,3.3,2.6,2.8,4.6l-.3,1.1c-.5,2-2.5,3.2-4.5,2.7-1.5-.4-3.3-.6-5.3-.6-8.4,0-14.8,5-14.8,15.4s5.5,15.2,14.9,15.2,3.5-.2,5.1-.5c2-.4,4,.9,4.4,3l.2,1Z" fill="#26044f"/>
      <g>
        <g>
          <path d="M200.3,230.7c-4.3,0-7.8-3.5-7.8-7.8s3.3-7.6,7.4-7.8c0-4.2,3.6-7.7,7.8-7.7s4.8,1.2,6.3,3.2c1.1-.7,2.4-1,3.7-1,3.4,0,6.3,2.3,7.2,5.5,4.2.1,7.6,3.6,7.6,7.8s-3.5,7.8-7.8,7.8h-24.4Z" fill="#5d3fd3"/>
          <path d="M207.7,208.2c2.6,0,4.9,1.4,6.1,3.5,1.1-.8,2.5-1.3,4-1.3,3.3,0,6,2.4,6.5,5.5.2,0,.3,0,.5,0,3.8,0,7,3.1,7,7s-3.1,7-7,7h-24.4c-3.8,0-7-3.1-7-7s3.1-7,7-7,.3,0,.5,0c0-.2,0-.5,0-.7,0-3.8,3.1-7,7-7M207.7,206.5c-4.5,0-8.2,3.4-8.7,7.8-4.2.6-7.4,4.2-7.4,8.6s3.9,8.7,8.7,8.7h24.4c4.8,0,8.7-3.9,8.7-8.7s-3.4-8.2-7.8-8.7c-1.2-3.3-4.3-5.5-7.9-5.5s-2.4.3-3.5.8c-1.6-1.9-4-3-6.5-3h0Z" fill="#fff"/>
        </g>
        <path d="M210.5,209.8c-.6-.2-1.3-.3-2-.3-3.7,0-6.7,3-6.7,6.7s0,.5,0,.7c-.2,0-.3,0-.5,0-3.7,0-6.7,3-6.7,6.7s.3,2.4.9,3.3c-.3-3,.2-8.8,7.5-8.7,0-2,.3-8.2,7.5-8.5h0Z" fill="#e7d4ff"/>
        <path d="M203.6,229.8h21.1c3.8,0,7-3.1,7-7s-.1-1.6-.4-2.3c-4.6,9-20,8.2-27.6,9.3h0Z" fill="#430e83"/>
      </g>
    </g>
  </g>
  <g id="_x33_2x32_favicon_dark" display="none">
    <g>
      <path d="M226,232.4c.3,1.3-.6,2.6-1.9,2.9s-3.4.6-5.6.6c-10.7,0-16.3-6.7-16.3-15.5s7.6-16.5,16.9-16.5,3.8.2,5.2.6c1.4.3,2.2,1.7,1.9,3.1l-.2.8c-.3,1.3-1.7,2.1-3,1.8-1-.2-2.2-.4-3.5-.4-5.6,0-9.9,3.4-9.9,10.3s3.7,10.1,9.9,10.1,2.3-.1,3.4-.3,2.7.6,2.9,2v.7Z" fill="#b5a3c8"/>
      <g>
        <g>
          <path d="M203.3,227.3c-2.9,0-5.3-2.4-5.3-5.3s2.2-5.1,4.9-5.3c0-2.8,2.4-5.1,5.3-5.1s3.2.8,4.2,2.1c.8-.4,1.6-.6,2.5-.6,2.3,0,4.2,1.5,4.8,3.6,2.8,0,5.1,2.4,5.1,5.3s-2.4,5.3-5.3,5.3h-16.3Z" fill="#b2a4ff"/>
          <path d="M208.2,212.3c1.7,0,3.2.9,4,2.4.7-.6,1.7-.9,2.6-.9,2.2,0,4,1.6,4.3,3.7.1,0,.2,0,.3,0,2.6,0,4.6,2.1,4.6,4.6s-2.1,4.6-4.6,4.6h-16.3c-2.6,0-4.6-2.1-4.6-4.6s2.1-4.6,4.6-4.6.2,0,.3,0c0-.2,0-.3,0-.5,0-2.6,2.1-4.6,4.6-4.6M208.2,211c-3,0-5.5,2.3-5.8,5.2-2.8.4-5,2.9-5,5.8s2.6,5.9,5.9,5.9h16.3c3.2,0,5.9-2.6,5.9-5.9s-2.3-5.5-5.2-5.9c-.8-2.2-2.9-3.7-5.3-3.7s-1.6.2-2.3.5c-1.1-1.2-2.7-2-4.4-2h0Z" fill="#fff"/>
        </g>
        <path d="M210.1,213.3c-.4-.1-.9-.2-1.4-.2-2.5,0-4.5,2-4.5,4.5s0,.3,0,.5c-.1,0-.2,0-.3,0-2.5,0-4.5,2-4.5,4.5s.2,1.6.6,2.2c-.2-2,.1-5.9,5-5.8,0-1.3.2-5.5,5-5.6h0Z" fill="#e7d4ff"/>
        <path d="M205.5,226.6h14c2.6,0,4.6-2.1,4.6-4.6s0-1.1-.3-1.6c-3,6-13.4,5.5-18.4,6.2h0Z" fill="#4b4e87"/>
      </g>
    </g>
  </g>
  <g id="_x33_2x32_favicon" display="none">
    <g>
      <path d="M227.6,232.2c.3,1.3-.6,2.6-1.9,2.9-1.5.3-3.4.6-5.6.6-10.7,0-16.3-6.7-16.3-15.5s7.6-16.5,16.9-16.5,3.8.2,5.2.6,2.2,1.7,1.9,3.1l-.2.8c-.3,1.3-1.7,2.1-3,1.8s-2.2-.4-3.5-.4c-5.6,0-9.9,3.4-9.9,10.3s3.7,10.1,9.9,10.1,2.3-.1,3.4-.3,2.7.6,2.9,2v.7Z" fill="#26044f"/>
      <g>
        <g>
          <path d="M204.9,227c-2.9,0-5.3-2.4-5.3-5.3s2.2-5.1,4.9-5.3c0-2.8,2.4-5.1,5.3-5.1s3.2.8,4.2,2.1c.8-.4,1.6-.6,2.5-.6,2.3,0,4.2,1.5,4.8,3.6,2.8,0,5.1,2.4,5.1,5.3s-2.4,5.3-5.3,5.3h-16.3Z" fill="#5d3fd3"/>
          <path d="M209.8,212c1.7,0,3.2.9,4,2.4.7-.6,1.7-.9,2.6-.9,2.2,0,4,1.6,4.3,3.7.1,0,.2,0,.3,0,2.6,0,4.6,2.1,4.6,4.6s-2.1,4.6-4.6,4.6h-16.3c-2.6,0-4.6-2.1-4.6-4.6s2.1-4.6,4.6-4.6.2,0,.3,0c0-.2,0-.3,0-.5,0-2.6,2.1-4.6,4.6-4.6M209.8,210.8c-3,0-5.5,2.3-5.8,5.2-2.8.4-5,2.9-5,5.8s2.6,5.9,5.9,5.9h16.3c3.2,0,5.9-2.6,5.9-5.9s-2.3-5.5-5.2-5.9c-.8-2.2-2.9-3.7-5.3-3.7s-1.6.2-2.3.5c-1.1-1.2-2.7-2-4.4-2h0Z" fill="#fff"/>
        </g>
        <path d="M211.7,213.1c-.4-.1-.9-.2-1.4-.2-2.5,0-4.5,2-4.5,4.5s0,.3,0,.5c-.1,0-.2,0-.3,0-2.5,0-4.5,2-4.5,4.5s.2,1.6.6,2.2c-.2-2,.1-5.9,5-5.8,0-1.3.2-5.5,5-5.6h0Z" fill="#e7d4ff"/>
        <path d="M207.1,226.4h14c2.6,0,4.6-2.1,4.6-4.6s0-1.1-.3-1.6c-3,6-13.4,5.5-18.4,6.2h0Z" fill="#430e83"/>
      </g>
    </g>
  </g>
  <g id="_x31_6x16_favicon_dark" display="none">
    <g>
      <path d="M217.6,225.2c.1.7-.3,1.3-1,1.5s-1.7.3-2.8.3c-5.4,0-8.1-3.3-8.1-7.8s3.8-8.2,8.5-8.2,1.9.1,2.6.3,1.1.9.9,1.5v.4c-.3.7-.9,1.1-1.6.9s-1.1-.2-1.8-.2c-2.8,0-4.9,1.7-4.9,5.1s1.8,5.1,5,5.1,1.2,0,1.7-.2,1.3.3,1.5,1v.3Z" fill="#b5a3c8"/>
      <g>
        <g>
          <path d="M206.3,222.7c-1.5,0-2.7-1.2-2.7-2.7s1.1-2.6,2.5-2.7c0-1.4,1.2-2.6,2.7-2.6s1.6.4,2.1,1c.4-.2.8-.3,1.2-.3,1.1,0,2.1.8,2.5,1.8,1.4,0,2.6,1.3,2.6,2.7s-1.2,2.7-2.7,2.7h-8.1Z" fill="#b2a4ff"/>
          <path d="M208.7,215.2c.9,0,1.6.5,2,1.2.4-.3.8-.4,1.3-.4,1.1,0,2,.8,2.2,1.8,0,0,.1,0,.2,0,1.3,0,2.3,1,2.3,2.3s-1,2.3-2.3,2.3h-8.1c-1.3,0-2.3-1-2.3-2.3s1-2.3,2.3-2.3.1,0,.2,0c0,0,0-.2,0-.2,0-1.3,1-2.3,2.3-2.3M208.7,214.4c-1.5,0-2.8,1.1-3,2.6-1.4.3-2.5,1.5-2.5,3s1.4,3.1,3.1,3.1h8.1c1.7,0,3.1-1.4,3.1-3.1s-1.2-2.8-2.7-3c-.4-1.1-1.5-1.8-2.7-1.8s-.8,0-1.1.2c-.6-.6-1.4-1-2.2-1h0Z" fill="#fff"/>
        </g>
        <path d="M209.7,215.7c-.2,0-.4-.1-.7-.1-1.2,0-2.2,1-2.2,2.2s0,.2,0,.2c0,0-.1,0-.2,0-1.2,0-2.2,1-2.2,2.2s.1.8.3,1.1c0-1,0-2.9,2.5-2.9,0-.7,0-2.7,2.5-2.8h0Z" fill="#e7d4ff"/>
        <path d="M207.4,222.4h7c1.3,0,2.3-1,2.3-2.3s0-.5-.1-.8c-1.5,3-6.7,2.7-9.2,3.1h0Z" fill="#4b4e87"/>
      </g>
    </g>
  </g>
  <g id="_x31_6x16_favicon" display="none">
    <g>
      <path d="M220.2,226.7c.1.7-.3,1.3-1,1.5s-1.7.3-2.8.3c-5.4,0-8.1-3.3-8.1-7.8s3.8-8.2,8.5-8.2,1.9.1,2.6.3,1.1.9.9,1.5v.4c-.3.7-.9,1.1-1.6.9s-1.1-.2-1.8-.2c-2.8,0-4.9,1.7-4.9,5.1s1.8,5.1,5,5.1,1.2,0,1.7-.2,1.3.3,1.5,1v.3Z" fill="#26044f"/>
      <g>
        <g>
          <path d="M208.8,224.2c-1.5,0-2.7-1.2-2.7-2.7s1.1-2.6,2.5-2.7c0-1.4,1.2-2.6,2.7-2.6s1.6.4,2.1,1c.4-.2.8-.3,1.2-.3,1.1,0,2.1.8,2.5,1.8,1.4,0,2.6,1.3,2.6,2.7s-1.2,2.7-2.7,2.7h-8.1Z" fill="#5d3fd3"/>
          <path d="M211.3,216.6c.9,0,1.6.5,2,1.2.4-.3.8-.4,1.3-.4,1.1,0,2,.8,2.2,1.8,0,0,.1,0,.2,0,1.3,0,2.3,1,2.3,2.3s-1,2.3-2.3,2.3h-8.1c-1.3,0-2.3-1-2.3-2.3s1-2.3,2.3-2.3.1,0,.2,0c0,0,0-.2,0-.2,0-1.3,1-2.3,2.3-2.3M211.3,215.9c-1.5,0-2.8,1.1-3,2.6-1.4.3-2.5,1.5-2.5,3s1.4,3.1,3.1,3.1h8.1c1.7,0,3.1-1.4,3.1-3.1s-1.2-2.8-2.7-3c-.4-1.1-1.5-1.8-2.7-1.8s-.8,0-1.1.2c-.6-.6-1.4-1-2.2-1h0Z" fill="#fff"/>
        </g>
        <path d="M212.2,217.2c-.2,0-.4-.1-.7-.1-1.2,0-2.2,1-2.2,2.2s0,.2,0,.2c0,0-.1,0-.2,0-1.2,0-2.2,1-2.2,2.2s.1.8.3,1.1c0-1,0-2.9,2.5-2.9,0-.7,0-2.7,2.5-2.8h0Z" fill="#e7d4ff"/>
        <path d="M209.9,223.8h7c1.3,0,2.3-1,2.3-2.3s0-.5-.1-.8c-1.5,3-6.7,2.7-9.2,3.1h0Z" fill="#430e83"/>
      </g>
    </g>
  </g>
  <g id="final_logo_dark">
    <g>
      <path d="M337.5,267.5c2.4,12.5-5.5,24.6-17.9,27.4-13.8,3.1-31.9,5.4-52.9,5.4-100.7,0-152.5-62.7-152.5-145.6S185,0,273.2,0s36,2.2,49,5.2c12.8,3,20.7,16,17.4,28.7l-1.8,7.1c-3.2,12.4-15.7,19.9-28.2,17.1-9.7-2.2-20.8-3.7-33.3-3.7-52.3,0-92.9,31.5-92.9,96.4s34.6,95.1,93.3,95.1,21.9-1.2,32.1-3.2c12.8-2.5,25.1,5.8,27.6,18.6l1.2,6.2Z" fill="#e7d5f5"/>
      <g>
        <path d="M196.3,126.5c-1,0-2,0-3,.1-3.3-19.5-20.3-34.3-40.7-34.3s-17.9,3.1-24.9,8.3c-7.5-13.2-21.6-22.1-37.9-22.1-24,0-43.5,19.5-43.5,43.5s0,3,.2,4.5c-1,0-2-.1-3-.1-24,0-43.5,19.5-43.5,43.5s19.5,43.5,43.5,43.5h152.7c24,0,43.5-19.5,43.5-43.5s-19.5-43.5-43.5-43.5h0Z" fill="#b2a4ff"/>
        <path d="M107.5,88.2c-4-1.3-8.3-2-12.8-2-23.2,0-42,18.8-42,42s0,2.9.2,4.4c-1,0-1.9-.1-2.9-.1-23.2,0-42,18.8-42,42s2,14.8,5.6,20.9c-1.6-18.9,1.3-55.1,46.7-54.2-.5-12.4,1.7-51.2,47.2-52.9h0Z" fill="#e7d4ff"/>
        <path d="M64.6,213.6h131.7c24,0,43.5-19.5,43.5-43.5s-.9-10.1-2.5-14.6c-28.6,56.4-125.4,51.4-172.7,58.2h0Z" fill="#4b4e87"/>
      </g>
      <g>
        <path d="M275.5,204.4c0,1.9-1.5,3.4-3.4,3.4h-3.5c-5.2,0-8.9-1.3-11.3-3.8-2.4-2.5-3.6-6.1-3.6-10.9v-57.3c0-1.9,1.5-3.4,3.4-3.4h8.3c1.9,0,3.4,1.5,3.4,3.4v56.9c0,1.9,1.5,3.4,3.4,3.4h0c1.9,0,3.4,1.5,3.4,3.4v5Z" fill="#e7d5f5"/>
        <path d="M306.3,209c-5.2,0-9.7-1.1-13.4-3.4-3.7-2.3-6.6-5.5-8.6-9.7-2-4.2-3-9.2-3-14.9s1-10.7,3-14.9c2-4.1,4.9-7.3,8.6-9.6,3.7-2.3,8.2-3.4,13.4-3.4s9.7,1.1,13.4,3.4c3.7,2.3,6.6,5.5,8.6,9.6,2,4.1,3,9.1,3,14.9s-1,10.7-3,14.9c-2,4.2-4.9,7.4-8.6,9.7-3.7,2.3-8.2,3.4-13.4,3.4ZM306.3,197.1c3,0,5.3-.9,6.9-2.8,1.6-1.9,2.4-4.5,2.4-7.8v-10.9c0-3.4-.8-6-2.4-7.8-1.6-1.8-3.9-2.7-6.9-2.7s-5.2.9-6.9,2.7c-1.7,1.8-2.5,4.4-2.5,7.8v10.9c0,3.3.8,5.9,2.5,7.8,1.7,1.9,4,2.8,6.9,2.8Z" fill="#e7d5f5"/>
        <path d="M381.1,207.7c-4.2,0-7.5-3.4-7.5-7.5v-1.4h-.5c-.9,2.7-2.5,5.1-4.8,7.1-2.3,2-5.7,3.1-10.1,3.1s-9.6-1.8-12.4-5.5c-2.9-3.7-4.3-8.9-4.3-15.6v-26.1c0-4.2,3.4-7.5,7.5-7.5h0c4.2,0,7.5,3.4,7.5,7.5v24.7c0,3.3.6,5.8,1.8,7.5,1.2,1.8,3.1,2.6,5.9,2.6s3.1-.3,4.5-.9c1.5-.6,2.6-1.4,3.6-2.6.9-1.2,1.4-2.6,1.4-4.3v-27.2c0-4.2,3.4-7.5,7.5-7.5h0c4.2,0,7.5,3.4,7.5,7.5v38.4c0,4.2-3.4,7.5-7.5,7.5h0Z" fill="#e7d5f5"/>
        <path d="M442.9,207.7c-4.2,0-7.5-3.4-7.5-7.5v-1.4h-.5c-.7,2.9-2.5,5.3-5.1,7.3-2.7,1.9-5.8,2.9-9.2,2.9s-8.2-1.1-11.3-3.2c-3.1-2.1-5.4-5.3-6.9-9.5-1.6-4.2-2.3-9.3-2.3-15.3s.8-11.1,2.3-15.3c1.6-4.1,3.9-7.3,6.9-9.4,3.1-2.1,6.8-3.2,11.3-3.2s6.5,1,9.2,2.8c2.7,1.9,4.4,4.3,5.1,7.3h.5v-23.3c0-4.2,3.4-7.5,7.5-7.5h0c4.2,0,7.5,3.4,7.5,7.5v60.2c0,4.2-3.4,7.5-7.5,7.5h0ZM425.5,196.8c1.9,0,3.6-.3,5.1-.9s2.7-1.5,3.5-2.7c.8-1.2,1.3-2.6,1.3-4.2v-15.8c0-1.6-.4-3-1.3-4.2-.8-1.2-2-2.1-3.5-2.7s-3.2-.9-5.1-.9c-2.8,0-5.2,1-7.1,3-1.9,2-2.8,4.7-2.8,8.1v9.3c0,3.3.9,6,2.8,8,1.9,2,4.2,3.1,7.1,3.1Z" fill="#e7d5f5"/>
        <path d="M472,149.5c-3.1,0-5.3-.7-6.7-2.1-1.4-1.4-2.1-3.2-2.1-5.3v-2.2c0-2.2.7-4,2.1-5.3,1.4-1.4,3.6-2.1,6.7-2.1s5.3.7,6.7,2.1c1.4,1.4,2.1,3.2,2.1,5.3v2.2c0,2.1-.7,3.9-2.1,5.3-1.4,1.4-3.6,2.1-6.7,2.1ZM464.5,200.2v-38.4c0-4.2,3.4-7.5,7.5-7.5h0c4.2,0,7.5,3.4,7.5,7.5v38.4c0,4.2-3.4,7.5-7.5,7.5h0c-4.2,0-7.5-3.4-7.5-7.5Z" fill="#e7d5f5"/>
        <path d="M493.6,220.6v-58.7c0-4.2,3.4-7.5,7.5-7.5h0c4.2,0,7.5,3.4,7.5,7.5v1.4h.5c.7-3,2.5-5.4,5.1-7.3,2.7-1.9,5.8-2.8,9.2-2.8s8.3,1.1,11.3,3.2c3,2.1,5.3,5.3,6.9,9.4,1.6,4.1,2.3,9.2,2.3,15.3s-.8,11.1-2.3,15.3c-1.6,4.2-3.9,7.3-6.9,9.5-3,2.1-6.8,3.2-11.3,3.2s-6.5-1-9.2-2.9c-2.7-1.9-4.4-4.4-5.1-7.3h-.5v21.8c0,4.2-3.4,7.5-7.5,7.5h0c-4.2,0-7.5-3.4-7.5-7.5ZM518.6,196.8c2.8,0,5.2-1,7.1-3.1,1.9-2,2.8-4.7,2.8-8v-9.3c0-3.4-.9-6.1-2.8-8.1-1.9-2-4.2-3-7.1-3s-3.6.3-5.1.9c-1.5.6-2.7,1.5-3.5,2.7-.9,1.2-1.3,2.6-1.3,4.2v15.8c0,1.6.4,3,1.3,4.2.8,1.2,2,2.1,3.5,2.7,1.5.6,3.2.9,5.1.9Z" fill="#e7d5f5"/>
        <path d="M577.3,204.4c0,1.9-1.5,3.4-3.4,3.4h-3.5c-5.2,0-8.9-1.3-11.3-3.8-2.4-2.5-3.6-6.1-3.6-10.9v-57.3c0-1.9,1.5-3.4,3.4-3.4h8.3c1.9,0,3.4,1.5,3.4,3.4v56.9c0,1.9,1.5,3.4,3.4,3.4h0c1.9,0,3.4,1.5,3.4,3.4v5Z" fill="#e7d5f5"/>
        <path d="M610.6,179.1l6.5-20.7c.8-2.4,3-4.1,5.5-4.1h1.7c4,0,6.8,3.9,5.5,7.6l-18,54c-.9,2.7-2,5-3.4,6.8-1.4,1.8-3.1,3.1-5.2,4-2.1.9-4.7,1.3-7.7,1.3h-3.6c-3.2,0-5.8-2.6-5.8-5.8h0c0-3.3,2.6-5.9,5.8-5.9h0c2.5,0,4.8-1.7,5.5-4.1h0c.4-1.2.3-2.4,0-3.6l-15.6-46.8c-1.3-3.8,1.5-7.6,5.5-7.6h2.7c2.5,0,4.8,1.6,5.5,4.1l6.5,20.7c0,.1,0,.2,0,.3l3.8,15.3h.6l3.9-15.3c0,0,0-.2,0-.3Z" fill="#e7d5f5"/>
      </g>
    </g>
  </g>
  <g id="final_logo" display="none">
    <g>
      <path d="M337.8,267.3c2.4,12.5-5.5,24.6-17.9,27.4-13.8,3.1-31.9,5.4-52.9,5.4-100.7,0-152.5-62.7-152.5-145.6S185.3-.2,273.5-.2s36,2.2,49,5.2c12.8,3,20.7,16,17.4,28.7l-1.8,7.1c-3.2,12.4-15.7,19.9-28.2,17.1-9.7-2.2-20.8-3.7-33.3-3.7-52.3,0-92.9,31.5-92.9,96.4s34.6,95.1,93.3,95.1,21.9-1.2,32.1-3.2c12.8-2.5,25.1,5.8,27.6,18.6l1.2,6.2Z" fill="#26044f"/>
      <g>
        <g>
          <path d="M43.8,220.9c-28.1,0-51-22.9-51-51s20.4-48.4,46.4-50.8c1.5-26.8,23.8-48.1,50.9-48.1s30.4,7.3,40,19.4c7-3.7,14.7-5.6,22.7-5.6,21.7,0,40.3,14.1,46.6,34.2,26.8,1.5,48.1,23.8,48.1,50.9s-22.9,51-51,51H43.8Z" fill="#5d3fd3"/>
          <path d="M90.1,78.4c16.2,0,30.4,8.9,37.9,22.1,6.9-5.2,15.5-8.3,24.9-8.3,20.4,0,37.4,14.8,40.7,34.3,1,0,2-.1,3-.1,24,0,43.5,19.5,43.5,43.5s-19.5,43.5-43.5,43.5H43.8C19.8,213.4.3,193.9.3,169.9s19.5-43.5,43.5-43.5,2,0,3,.1c-.2-1.5-.2-3-.2-4.5,0-24,19.5-43.5,43.5-43.5M90.1,63.4c-29,0-53.2,21.3-57.8,49.1-26.8,5.3-47,29.1-47,57.4s26.3,58.5,58.5,58.5h152.7c32.3,0,58.5-26.3,58.5-58.5s-21.8-53.9-50.2-57.9c-8.5-20.7-28.8-34.8-52.1-34.8s-14.3,1.3-20.8,4c-10.9-11.2-26-17.7-41.9-17.7h0Z" fill="#fff"/>
        </g>
        <path d="M107.7,88.1c-4-1.3-8.3-2-12.8-2-23.2,0-42,18.8-42,42s0,2.9.2,4.4c-1,0-1.9-.1-2.9-.1-23.2,0-42,18.8-42,42s2,14.8,5.6,20.9c-1.6-18.9,1.3-55.1,46.7-54.2-.5-12.4,1.7-51.2,47.2-52.9h0Z" fill="#e7d4ff"/>
        <path d="M64.9,213.4h131.7c24,0,43.5-19.5,43.5-43.5s-.9-10.1-2.5-14.6c-28.6,56.4-125.4,51.4-172.7,58.2h0Z" fill="#430e83"/>
      </g>
      <g>
        <path d="M275.8,204.2c0,1.9-1.5,3.4-3.4,3.4h-3.5c-5.2,0-8.9-1.3-11.3-3.8-2.4-2.5-3.6-6.1-3.6-10.9v-57.3c0-1.9,1.5-3.4,3.4-3.4h8.3c1.9,0,3.4,1.5,3.4,3.4v56.9c0,1.9,1.5,3.4,3.4,3.4h0c1.9,0,3.4,1.5,3.4,3.4v5Z" fill="#26044f"/>
        <path d="M306.5,208.8c-5.2,0-9.7-1.1-13.4-3.4-3.7-2.3-6.6-5.5-8.6-9.7-2-4.2-3-9.2-3-14.9s1-10.7,3-14.9c2-4.1,4.9-7.3,8.6-9.6,3.7-2.3,8.2-3.4,13.4-3.4s9.7,1.1,13.4,3.4c3.7,2.3,6.6,5.5,8.6,9.6,2,4.1,3,9.1,3,14.9s-1,10.7-3,14.9c-2,4.2-4.9,7.4-8.6,9.7-3.7,2.3-8.2,3.4-13.4,3.4ZM306.5,196.9c3,0,5.3-.9,6.9-2.8,1.6-1.9,2.4-4.5,2.4-7.8v-10.9c0-3.4-.8-6-2.4-7.8-1.6-1.8-3.9-2.7-6.9-2.7s-5.2.9-6.9,2.7c-1.7,1.8-2.5,4.4-2.5,7.8v10.9c0,3.3.8,5.9,2.5,7.8,1.7,1.9,4,2.8,6.9,2.8Z" fill="#26044f"/>
        <path d="M381.3,207.6c-4.2,0-7.5-3.4-7.5-7.5v-1.4h-.5c-.9,2.7-2.5,5.1-4.8,7.1-2.3,2-5.7,3.1-10.1,3.1s-9.6-1.8-12.4-5.5c-2.9-3.7-4.3-8.9-4.3-15.6v-26.1c0-4.2,3.4-7.5,7.5-7.5h0c4.2,0,7.5,3.4,7.5,7.5v24.7c0,3.3.6,5.8,1.8,7.5,1.2,1.8,3.1,2.6,5.9,2.6s3.1-.3,4.5-.9c1.5-.6,2.6-1.4,3.6-2.6.9-1.2,1.4-2.6,1.4-4.3v-27.2c0-4.2,3.4-7.5,7.5-7.5h0c4.2,0,7.5,3.4,7.5,7.5v38.4c0,4.2-3.4,7.5-7.5,7.5h0Z" fill="#26044f"/>
        <path d="M443.2,207.6c-4.2,0-7.5-3.4-7.5-7.5v-1.4h-.5c-.7,2.9-2.5,5.3-5.1,7.3-2.7,1.9-5.8,2.9-9.2,2.9s-8.2-1.1-11.3-3.2c-3.1-2.1-5.4-5.3-6.9-9.5-1.6-4.2-2.3-9.3-2.3-15.3s.8-11.1,2.3-15.3c1.6-4.1,3.9-7.3,6.9-9.4,3.1-2.1,6.8-3.2,11.3-3.2s6.5,1,9.2,2.8c2.7,1.9,4.4,4.3,5.1,7.3h.5v-23.3c0-4.2,3.4-7.5,7.5-7.5h0c4.2,0,7.5,3.4,7.5,7.5v60.2c0,4.2-3.4,7.5-7.5,7.5h0ZM425.8,196.6c1.9,0,3.6-.3,5.1-.9s2.7-1.5,3.5-2.7c.8-1.2,1.3-2.6,1.3-4.2v-15.8c0-1.6-.4-3-1.3-4.2-.8-1.2-2-2.1-3.5-2.7s-3.2-.9-5.1-.9c-2.8,0-5.2,1-7.1,3-1.9,2-2.8,4.7-2.8,8.1v9.3c0,3.3.9,6,2.8,8,1.9,2,4.2,3.1,7.1,3.1Z" fill="#26044f"/>
        <path d="M472.3,149.4c-3.1,0-5.3-.7-6.7-2.1-1.4-1.4-2.1-3.2-2.1-5.3v-2.2c0-2.2.7-4,2.1-5.3,1.4-1.4,3.6-2.1,6.7-2.1s5.3.7,6.7,2.1c1.4,1.4,2.1,3.2,2.1,5.3v2.2c0,2.1-.7,3.9-2.1,5.3-1.4,1.4-3.6,2.1-6.7,2.1ZM464.8,200v-38.4c0-4.2,3.4-7.5,7.5-7.5h0c4.2,0,7.5,3.4,7.5,7.5v38.4c0,4.2-3.4,7.5-7.5,7.5h0c-4.2,0-7.5-3.4-7.5-7.5Z" fill="#26044f"/>
        <path d="M493.9,220.4v-58.7c0-4.2,3.4-7.5,7.5-7.5h0c4.2,0,7.5,3.4,7.5,7.5v1.4h.5c.7-3,2.5-5.4,5.1-7.3,2.7-1.9,5.8-2.8,9.2-2.8s8.3,1.1,11.3,3.2c3,2.1,5.3,5.3,6.9,9.4,1.6,4.1,2.3,9.2,2.3,15.3s-.8,11.1-2.3,15.3c-1.6,4.2-3.9,7.3-6.9,9.5-3,2.1-6.8,3.2-11.3,3.2s-6.5-1-9.2-2.9c-2.7-1.9-4.4-4.4-5.1-7.3h-.5v21.8c0,4.2-3.4,7.5-7.5,7.5h0c-4.2,0-7.5-3.4-7.5-7.5ZM518.8,196.6c2.8,0,5.2-1,7.1-3.1,1.9-2,2.8-4.7,2.8-8v-9.3c0-3.4-.9-6.1-2.8-8.1-1.9-2-4.2-3-7.1-3s-3.6.3-5.1.9c-1.5.6-2.7,1.5-3.5,2.7-.9,1.2-1.3,2.6-1.3,4.2v15.8c0,1.6.4,3,1.3,4.2.8,1.2,2,2.1,3.5,2.7,1.5.6,3.2.9,5.1.9Z" fill="#26044f"/>
        <path d="M577.6,204.2c0,1.9-1.5,3.4-3.4,3.4h-3.5c-5.2,0-8.9-1.3-11.3-3.8-2.4-2.5-3.6-6.1-3.6-10.9v-57.3c0-1.9,1.5-3.4,3.4-3.4h8.3c1.9,0,3.4,1.5,3.4,3.4v56.9c0,1.9,1.5,3.4,3.4,3.4h0c1.9,0,3.4,1.5,3.4,3.4v5Z" fill="#26044f"/>
        <path d="M610.9,178.9l6.5-20.7c.8-2.4,3-4.1,5.5-4.1h1.7c4,0,6.8,3.9,5.5,7.6l-18,54c-.9,2.7-2,5-3.4,6.8-1.4,1.8-3.1,3.1-5.2,4-2.1.9-4.7,1.3-7.7,1.3h-3.6c-3.2,0-5.8-2.6-5.8-5.8h0c0-3.3,2.6-5.9,5.8-5.9h0c2.5,0,4.8-1.7,5.5-4.1h0c.4-1.2.3-2.4,0-3.6l-15.6-46.8c-1.3-3.8,1.5-7.6,5.5-7.6h2.7c2.5,0,4.8,1.6,5.5,4.1l6.5,20.7c0,.1,0,.2,0,.3l3.8,15.3h.6l3.9-15.3c0,0,0-.2,0-.3Z" fill="#26044f"/>
      </g>
    </g>
  </g>
  <g id="Ebene_2" display="none">
    <path d="M308.3,577.9c2.4,12.5-5.5,24.6-17.9,27.4-13.8,3.1-31.9,5.4-52.9,5.4-100.7,0-152.5-62.7-152.5-145.6s70.9-154.7,159-154.7,36,2.2,49,5.2c12.8,3,20.7,16,17.4,28.7l-1.8,7.1c-3.2,12.4-15.7,19.9-28.2,17.1-9.7-2.2-20.8-3.7-33.3-3.7-52.3,0-92.9,31.5-92.9,96.4s34.6,95.1,93.3,95.1,21.9-1.2,32.1-3.2c12.8-2.5,25.1,5.8,27.6,18.6l1.2,6.2Z" fill="#26044f"/>
    <g>
      <g>
        <path d="M13.3,531.5c-28.1,0-51-22.9-51-51s20.4-48.4,46.4-50.8c1.5-26.8,23.8-48.1,50.9-48.1s30.4,7.3,40,19.4c7-3.7,14.7-5.6,22.7-5.6,21.7,0,40.4,14.1,46.6,34.2,26.8,1.5,48.1,23.8,48.1,50.9s-22.9,51-51,51H13.3Z" fill="#5d3fd3"/>
        <path d="M59.6,389c16.2,0,30.4,8.9,37.9,22.1,6.9-5.2,15.5-8.3,24.9-8.3,20.4,0,37.4,14.8,40.7,34.3,1,0,2-.1,3-.1,24,0,43.5,19.5,43.5,43.5s-19.5,43.5-43.5,43.5H13.3c-24,0-43.5-19.5-43.5-43.5s19.5-43.5,43.5-43.5,2,0,3,.1c-.2-1.5-.2-3-.2-4.5,0-24,19.5-43.5,43.5-43.5M59.6,374c-29,0-53.2,21.3-57.8,49.1-26.8,5.3-47,29.1-47,57.4s26.3,58.5,58.5,58.5h152.7c32.3,0,58.5-26.3,58.5-58.5s-21.8-53.9-50.2-57.9c-8.5-20.7-28.8-34.8-52.1-34.8s-14.3,1.3-20.8,4c-10.9-11.2-26-17.7-41.9-17.7h0Z" fill="#fff"/>
      </g>
      <path d="M77.2,398.7c-4-1.3-8.3-2-12.8-2-23.2,0-42,18.8-42,42s0,2.9.2,4.4c-1,0-1.9-.1-2.9-.1-23.2,0-42,18.8-42,42s2,14.8,5.6,20.9c-1.6-18.9,1.3-55.1,46.7-54.2-.5-12.4,1.7-51.2,47.2-52.9h0Z" fill="#e7d4ff"/>
      <path d="M34.3,524h131.7c24,0,43.5-19.5,43.5-43.5s-.9-10.1-2.5-14.6c-28.6,56.4-125.4,51.4-172.7,58.2h0Z" fill="#430e83"/>
    </g>
    <g>
      <path d="M254.3,519.8c0,1.9-1.5,3.4-3.4,3.4h-3.5c-5.2,0-8.9-1.3-11.3-3.8-2.4-2.5-3.6-6.1-3.6-10.9v-57.3c0-1.9,1.5-3.4,3.4-3.4h8.3c1.9,0,3.4,1.5,3.4,3.4v56.9c0,1.9,1.5,3.4,3.4,3.4h0c1.9,0,3.4,1.5,3.4,3.4v5Z" fill="#26044f"/>
      <path d="M285,524.4c-5.2,0-9.7-1.1-13.4-3.4-3.7-2.3-6.6-5.5-8.6-9.7-2-4.2-3-9.2-3-14.9s1-10.7,3-14.9c2-4.1,4.9-7.3,8.6-9.6,3.7-2.3,8.2-3.4,13.4-3.4s9.7,1.1,13.4,3.4c3.7,2.3,6.6,5.5,8.6,9.6,2,4.1,3,9.1,3,14.9s-1,10.7-3,14.9c-2,4.2-4.9,7.4-8.6,9.7-3.7,2.3-8.2,3.4-13.4,3.4ZM285,512.5c3,0,5.3-.9,6.9-2.8,1.6-1.9,2.4-4.5,2.4-7.8v-10.9c0-3.4-.8-6-2.4-7.8-1.6-1.8-3.9-2.7-6.9-2.7s-5.2.9-6.9,2.7c-1.7,1.8-2.5,4.4-2.5,7.8v10.9c0,3.3.8,5.9,2.5,7.8,1.7,1.9,4,2.8,6.9,2.8Z" fill="#26044f"/>
      <path d="M359.8,523.2c-4.2,0-7.5-3.4-7.5-7.5v-1.4h-.5c-.9,2.7-2.5,5.1-4.8,7.1-2.3,2-5.7,3.1-10.1,3.1s-9.6-1.8-12.4-5.5c-2.9-3.7-4.3-8.9-4.3-15.6v-26.1c0-4.2,3.4-7.5,7.5-7.5h0c4.2,0,7.5,3.4,7.5,7.5v24.7c0,3.3.6,5.8,1.8,7.5,1.2,1.8,3.1,2.6,5.9,2.6s3.1-.3,4.5-.9c1.5-.6,2.6-1.4,3.6-2.6.9-1.2,1.4-2.6,1.4-4.3v-27.2c0-4.2,3.4-7.5,7.5-7.5h0c4.2,0,7.5,3.4,7.5,7.5v38.4c0,4.2-3.4,7.5-7.5,7.5h0Z" fill="#26044f"/>
      <path d="M421.7,523.2c-4.2,0-7.5-3.4-7.5-7.5v-1.4h-.5c-.7,2.9-2.5,5.3-5.1,7.3-2.7,1.9-5.8,2.9-9.2,2.9s-8.2-1.1-11.3-3.2c-3.1-2.1-5.4-5.3-6.9-9.5-1.6-4.2-2.3-9.3-2.3-15.3s.8-11.1,2.3-15.3c1.6-4.1,3.9-7.3,6.9-9.4,3.1-2.1,6.8-3.2,11.3-3.2s6.5,1,9.2,2.8c2.7,1.9,4.4,4.3,5.1,7.3h.5v-23.3c0-4.2,3.4-7.5,7.5-7.5h0c4.2,0,7.5,3.4,7.5,7.5v60.2c0,4.2-3.4,7.5-7.5,7.5h0ZM404.3,512.2c1.9,0,3.6-.3,5.1-.9,1.5-.6,2.7-1.5,3.5-2.7.8-1.2,1.3-2.6,1.3-4.2v-15.8c0-1.6-.4-3-1.3-4.2-.8-1.2-2-2.1-3.5-2.7-1.5-.6-3.2-.9-5.1-.9-2.8,0-5.2,1-7.1,3-1.9,2-2.8,4.7-2.8,8.1v9.3c0,3.3.9,6,2.8,8,1.9,2,4.2,3.1,7.1,3.1Z" fill="#26044f"/>
      <path d="M450.8,465c-3.1,0-5.3-.7-6.7-2.1-1.4-1.4-2.1-3.2-2.1-5.3v-2.2c0-2.2.7-4,2.1-5.3,1.4-1.4,3.6-2.1,6.7-2.1s5.3.7,6.7,2.1c1.4,1.4,2.1,3.2,2.1,5.3v2.2c0,2.1-.7,3.9-2.1,5.3-1.4,1.4-3.6,2.1-6.7,2.1ZM443.3,515.6v-38.4c0-4.2,3.4-7.5,7.5-7.5h0c4.2,0,7.5,3.4,7.5,7.5v38.4c0,4.2-3.4,7.5-7.5,7.5h0c-4.2,0-7.5-3.4-7.5-7.5Z" fill="#26044f"/>
      <path d="M472.4,536v-58.7c0-4.2,3.4-7.5,7.5-7.5h0c4.2,0,7.5,3.4,7.5,7.5v1.4h.5c.7-3,2.5-5.4,5.1-7.3,2.7-1.9,5.8-2.8,9.2-2.8s8.3,1.1,11.3,3.2c3,2.1,5.3,5.3,6.9,9.4,1.6,4.1,2.3,9.2,2.3,15.3s-.8,11.1-2.3,15.3c-1.6,4.2-3.9,7.3-6.9,9.5-3,2.1-6.8,3.2-11.3,3.2s-6.5-1-9.2-2.9c-2.7-1.9-4.4-4.4-5.1-7.3h-.5v21.8c0,4.2-3.4,7.5-7.5,7.5h0c-4.2,0-7.5-3.4-7.5-7.5ZM497.3,512.2c2.8,0,5.2-1,7.1-3.1,1.9-2,2.8-4.7,2.8-8v-9.3c0-3.4-.9-6.1-2.8-8.1-1.9-2-4.2-3-7.1-3s-3.6.3-5.1.9c-1.5.6-2.7,1.5-3.5,2.7-.9,1.2-1.3,2.6-1.3,4.2v15.8c0,1.6.4,3,1.3,4.2.8,1.2,2,2.1,3.5,2.7,1.5.6,3.2.9,5.1.9Z" fill="#26044f"/>
      <path d="M556,519.8c0,1.9-1.5,3.4-3.4,3.4h-3.5c-5.2,0-8.9-1.3-11.3-3.8-2.4-2.5-3.6-6.1-3.6-10.9v-57.3c0-1.9,1.5-3.4,3.4-3.4h8.3c1.9,0,3.4,1.5,3.4,3.4v56.9c0,1.9,1.5,3.4,3.4,3.4h0c1.9,0,3.4,1.5,3.4,3.4v5Z" fill="#26044f"/>
      <path d="M589.3,494.5l6.5-20.7c.8-2.4,3-4.1,5.5-4.1h1.7c4,0,6.8,3.9,5.5,7.6l-18,54c-.9,2.7-2,5-3.4,6.8-1.4,1.8-3.1,3.1-5.2,4-2.1.9-4.7,1.3-7.7,1.3h-3.6c-3.2,0-5.8-2.6-5.8-5.8h0c0-3.3,2.6-5.9,5.8-5.9h0c2.5,0,4.8-1.7,5.5-4.1h0c.4-1.2.3-2.4,0-3.6l-15.6-46.8c-1.3-3.8,1.5-7.6,5.5-7.6h2.7c2.5,0,4.8,1.6,5.5,4.1l6.5,20.7c0,.1,0,.2,0,.3l3.8,15.3h.6l3.9-15.3c0,0,0-.2,0-.3Z" fill="#26044f"/>
    </g>
    <circle cx="312" cy="322.2" r="13.6" fill="#e6e6e6"/>
    <circle cx="294.5" cy="318" r="13.6" fill="#e6e6e6"/>
    <circle cx="293" cy="313.3" r="3.9"/>
    <circle cx="315.9" cy="318" r="3.9"/>
  </g>
  <g id="Ebene_7" display="none">
    <g>
      <g>
        <path d="M949.2,190.4c-1.6,0-3.2,0-4.8.2-5.3-30.9-32.2-54.4-64.7-54.4s-28.5,4.9-39.5,13.2c-11.9-20.9-34.4-35.1-60.2-35.1-38.2,0-69.1,30.9-69.1,69.1s.1,4.8.4,7.2c-1.6-.1-3.1-.2-4.7-.2-38.2,0-69.1,30.9-69.1,69.1s30.9,69.1,69.1,69.1h242.5c38.2,0,69.1-30.9,69.1-69.1s-30.9-69.1-69.1-69.1h0Z" fill="#5d3fd3"/>
        <path d="M808.2,129.6c-6.4-2-13.2-3.2-20.3-3.2-36.8,0-66.7,29.9-66.7,66.7s.1,4.6.4,6.9c-1.5-.1-3-.2-4.6-.2-36.8,0-66.7,29.9-66.7,66.7s3.2,23.4,8.9,33.2c-2.5-30.1,2-87.5,74.1-86.1-.7-19.6,2.7-81.2,74.9-84.1h0Z" fill="#e7d4ff"/>
        <path d="M740.1,328.6h209.1c38.2,0,69.1-30.9,69.1-69.1s-1.4-16-4-23.2c-45.4,89.5-199.1,81.6-274.2,92.3h0Z" fill="#430e83"/>
      </g>
      <g>
        <path d="M724.9,265.9c.9,0,1.7-.2,2.4-.5.7-.4,1.2-.9,1.6-1.5s.6-1.4.6-2.3h8.2c0,2.2-.6,4.1-1.7,5.8s-2.6,3-4.5,3.9c-1.9.9-4,1.4-6.4,1.4s-4.4-.4-6.1-1.2c-1.8-.8-3.2-1.9-4.4-3.3-1.2-1.4-2.1-3-2.6-4.9-.6-1.9-.9-3.9-.9-6v-.7c0-2.1.3-4.1.9-6,.6-1.9,1.5-3.5,2.6-4.9,1.2-1.4,2.6-2.5,4.4-3.3,1.7-.8,3.8-1.2,6.1-1.2s4.7.5,6.6,1.4c1.9.9,3.4,2.3,4.5,4.1,1.1,1.8,1.6,3.9,1.6,6.4h-8.2c0-1-.2-1.8-.5-2.6-.3-.8-.9-1.4-1.6-1.8s-1.6-.7-2.6-.7-1.9.2-2.6.7-1.2,1.1-1.5,1.9c-.4.8-.6,1.7-.7,2.7-.1,1-.2,2.1-.2,3.2v.7c0,1.2,0,2.2.2,3.3.1,1,.4,1.9.7,2.7s.9,1.4,1.5,1.8c.7.4,1.6.7,2.7.7Z" fill="#fff"/>
        <path d="M751.2,229.2v42.9h-8.7v-42.9h8.7Z" fill="#fff"/>
        <path d="M756.2,257.3v-.6c0-2.2.3-4.3,1-6.1.6-1.9,1.6-3.5,2.8-4.9,1.2-1.4,2.7-2.5,4.5-3.2,1.8-.8,3.8-1.2,6.1-1.2s4.4.4,6.2,1.2c1.8.8,3.3,1.8,4.5,3.2,1.2,1.4,2.2,3,2.8,4.9.6,1.9.9,3.9.9,6.1v.6c0,2.2-.3,4.2-.9,6.1-.6,1.9-1.6,3.5-2.8,4.9-1.2,1.4-2.7,2.5-4.5,3.2-1.8.8-3.8,1.1-6.2,1.1s-4.4-.4-6.2-1.1c-1.8-.8-3.3-1.8-4.6-3.2-1.2-1.4-2.2-3-2.8-4.9-.6-1.9-1-3.9-1-6.1ZM765,256.7v.6c0,1.2,0,2.3.3,3.4.2,1,.5,2,1,2.7.4.8,1,1.4,1.8,1.8s1.6.7,2.7.7,2-.2,2.7-.7c.7-.4,1.3-1,1.8-1.8.4-.8.8-1.7,1-2.7.2-1,.3-2.2.3-3.4v-.6c0-1.2,0-2.3-.3-3.3-.2-1-.5-2-1-2.8-.4-.8-1-1.4-1.8-1.9-.7-.4-1.6-.7-2.7-.7s-1.9.2-2.7.7c-.7.4-1.3,1.1-1.8,1.9-.4.8-.8,1.7-1,2.8-.2,1-.3,2.1-.3,3.3Z" fill="#fff"/>
        <path d="M808.4,258.6h2.4c0,2-.2,3.8-.7,5.6s-1.2,3.2-2.1,4.5c-.9,1.3-2.1,2.2-3.5,2.9-1.4.7-3,1-4.8,1s-2.9-.2-4.1-.6c-1.2-.4-2.3-1.1-3.2-2-.9-.9-1.6-2.1-2.1-3.5-.5-1.4-.7-3.1-.7-5.1v-19.6h8.7v19.6c0,.8,0,1.4.3,2,.2.5.5,1,.8,1.4.3.4.8.6,1.3.8.5.2,1.1.3,1.7.3,1.5,0,2.8-.3,3.6-1s1.5-1.5,1.9-2.6c.4-1.1.5-2.3.5-3.7ZM807.5,264.8v-22.9h8.8v30.2h-8.2l-.6-7.3Z" fill="#fff"/>
        <path d="M820.7,257.3v-.6c0-2.3.3-4.4.8-6.3.5-1.9,1.3-3.5,2.3-4.9,1-1.4,2.2-2.4,3.7-3.2,1.5-.7,3.2-1.1,5.1-1.1s3.3.4,4.6,1.2c1.3.8,2.4,1.9,3.3,3.2.9,1.4,1.7,3,2.2,4.9s1,3.9,1.3,6.1v1c-.3,2.1-.7,4-1.3,5.8-.6,1.8-1.3,3.4-2.3,4.8-.9,1.4-2,2.4-3.4,3.2-1.3.8-2.9,1.2-4.6,1.2s-3.6-.4-5-1.1c-1.5-.8-2.7-1.8-3.7-3.2-1-1.4-1.7-3-2.2-4.9-.5-1.9-.8-3.9-.8-6.1ZM829.4,256.8v.6c0,1.2,0,2.3.3,3.3.2,1,.5,1.9.9,2.7.4.8,1,1.4,1.6,1.8.7.4,1.5.7,2.5.7s2.4-.3,3.2-.9c.8-.6,1.5-1.4,1.9-2.5s.7-2.3.7-3.8v-2.9c0-1.2-.1-2.3-.4-3.2-.2-.9-.6-1.8-1.1-2.4-.5-.7-1.1-1.2-1.8-1.5-.7-.3-1.5-.5-2.5-.5s-1.8.2-2.4.7c-.7.4-1.2,1-1.6,1.8s-.7,1.7-.9,2.8c-.2,1.1-.3,2.2-.3,3.4ZM839.5,265.3v-36.1h8.8v42.9h-7.9l-.9-6.8Z" fill="#fff"/>
        <path d="M854,234.1c0-1.3.4-2.3,1.3-3.1.9-.8,2.1-1.2,3.5-1.2s2.6.4,3.5,1.2c.9.8,1.4,1.8,1.4,3.1s-.5,2.3-1.4,3.1c-.9.8-2.1,1.2-3.5,1.2s-2.6-.4-3.5-1.2c-.9-.8-1.3-1.8-1.3-3.1ZM863.3,241.9v30.2h-8.7v-30.2h8.7Z" fill="#fff"/>
        <path d="M878.3,247.7v36h-8.7v-41.8h8.1l.6,5.8ZM897.1,256.6v.6c0,2.2-.3,4.2-.8,6.1-.5,1.9-1.3,3.5-2.2,4.9s-2.2,2.5-3.7,3.3-3.1,1.2-5.1,1.2-3.4-.4-4.7-1.2-2.4-1.9-3.4-3.2c-.9-1.4-1.6-3-2.2-4.8-.5-1.8-1-3.7-1.3-5.8v-1.1c.3-2.2.7-4.2,1.3-6.1.6-1.9,1.3-3.5,2.2-4.8.9-1.4,2-2.4,3.3-3.2s2.9-1.1,4.7-1.1,3.6.4,5.1,1.1c1.5.7,2.7,1.8,3.7,3.1,1,1.3,1.7,3,2.2,4.8.5,1.9.8,4,.8,6.3ZM888.4,257.2v-.6c0-1.2,0-2.4-.3-3.4-.2-1-.5-1.9-.9-2.7-.4-.8-.9-1.4-1.6-1.8-.7-.4-1.5-.6-2.5-.6s-1.9.2-2.7.5c-.7.3-1.3.8-1.8,1.5-.4.6-.8,1.4-1,2.4-.2.9-.3,2-.3,3.2v3.1c0,1.4.2,2.6.6,3.7.4,1.1,1,1.9,1.8,2.5.8.6,1.9.9,3.3.9s1.8-.2,2.5-.7,1.2-1.1,1.6-1.9.7-1.7.9-2.8c.2-1,.3-2.2.3-3.4Z" fill="#fff"/>
        <path d="M910.9,229.2v42.9h-8.7v-42.9h8.7Z" fill="#fff"/>
        <path d="M923.6,241.9l6.3,21.5,1.1,9.2-5.9.3-10.8-31.1h9.4ZM926.3,268.6l7.9-26.7h9.4l-12.2,34.7c-.3.8-.6,1.6-1,2.5s-1,1.7-1.8,2.5c-.7.8-1.7,1.5-2.8,2-1.1.5-2.5.8-4.2.8s-1.5,0-1.9-.1-1.1-.2-1.8-.4v-6.3c.2,0,.4,0,.6,0s.4,0,.6,0c1,0,1.9-.1,2.5-.3.6-.2,1.1-.6,1.5-1s.7-1,.9-1.7l2.3-5.9Z" fill="#fff"/>
      </g>
    </g>
    <g>
      <g>
        <path d="M412.2,164.3c-1.3,0-2.6,0-3.8.1-4.3-24.8-25.9-43.6-51.9-43.6s-22.9,3.9-31.7,10.6c-9.5-16.8-27.6-28.1-48.3-28.1-30.6,0-55.4,24.8-55.4,55.4s.1,3.9.3,5.7c-1.3,0-2.5-.1-3.8-.1-30.6,0-55.4,24.8-55.4,55.4s24.8,55.4,55.4,55.4h194.6c30.6,0,55.4-24.8,55.4-55.4s-24.8-55.4-55.4-55.4h0Z" fill="#5d3fd3"/>
        <path d="M299.1,115.5c-5.1-1.6-10.6-2.5-16.3-2.5-29.5,0-53.5,24-53.5,53.5s0,3.7.3,5.5c-1.2,0-2.4-.1-3.7-.1-29.5,0-53.5,24-53.5,53.5s2.6,18.8,7.1,26.6c-2-24.1,1.6-70.2,59.5-69.1-.6-15.8,2.2-65.2,60.1-67.4h0Z" fill="#e7d4ff"/>
        <path d="M244.4,275.2h167.8c30.6,0,55.4-24.8,55.4-55.4s-1.1-12.8-3.2-18.6c-36.5,71.8-159.7,65.4-220,74.1h0Z" fill="#430e83"/>
      </g>
      <g>
        <path d="M223.7,320c.8,0,1.6-.2,2.2-.5.6-.3,1.1-.8,1.4-1.3s.5-1.3.5-2.1h7.3c0,2-.5,3.7-1.5,5.2-1,1.5-2.4,2.7-4.1,3.5-1.7.8-3.6,1.3-5.7,1.3s-3.9-.3-5.5-1-2.9-1.7-3.9-2.9c-1-1.2-1.8-2.7-2.4-4.4s-.8-3.4-.8-5.4v-.6c0-1.9.3-3.7.8-5.4s1.3-3.1,2.4-4.4c1-1.2,2.3-2.2,3.9-2.9,1.6-.7,3.4-1,5.5-1s4.2.4,5.9,1.3c1.7.8,3,2.1,4,3.7,1,1.6,1.4,3.5,1.4,5.7h-7.3c0-.9-.2-1.6-.5-2.3s-.8-1.2-1.4-1.6c-.6-.4-1.4-.6-2.3-.6s-1.7.2-2.3.6c-.6.4-1.1,1-1.4,1.7-.3.7-.5,1.5-.6,2.4-.1.9-.2,1.9-.2,2.9v.6c0,1,0,2,.2,2.9.1.9.3,1.7.7,2.4s.8,1.2,1.4,1.6c.6.4,1.4.6,2.4.6Z"/>
        <path d="M247.3,287.3v38.3h-7.8v-38.3h7.8Z"/>
        <path d="M251.7,312.4v-.5c0-2,.3-3.8.8-5.5.6-1.7,1.4-3.1,2.5-4.4,1.1-1.2,2.4-2.2,4-2.9s3.4-1,5.5-1,3.9.3,5.5,1c1.6.7,3,1.7,4.1,2.9,1.1,1.2,1.9,2.7,2.5,4.4.6,1.7.8,3.5.8,5.5v.5c0,2-.3,3.8-.8,5.4-.6,1.7-1.4,3.1-2.5,4.4s-2.4,2.2-4,2.9c-1.6.7-3.4,1-5.5,1s-3.9-.3-5.5-1-3-1.6-4.1-2.9c-1.1-1.2-1.9-2.7-2.5-4.4-.6-1.7-.8-3.5-.8-5.4ZM259.5,311.9v.5c0,1.1,0,2.1.3,3,.2.9.5,1.7.9,2.4.4.7.9,1.2,1.6,1.6.7.4,1.5.6,2.4.6s1.7-.2,2.4-.6,1.2-.9,1.6-1.6c.4-.7.7-1.5.9-2.4.2-.9.3-1.9.3-3v-.5c0-1,0-2-.3-3-.2-.9-.5-1.7-.9-2.5-.4-.7-.9-1.3-1.6-1.7-.7-.4-1.5-.6-2.4-.6s-1.7.2-2.4.6c-.6.4-1.2,1-1.6,1.7-.4.7-.7,1.5-.9,2.5-.2.9-.3,1.9-.3,3Z"/>
        <path d="M298.3,313.6h2.1c0,1.8-.2,3.4-.6,5-.4,1.5-1.1,2.9-1.9,4-.8,1.1-1.9,2-3.1,2.6s-2.7.9-4.3.9-2.5-.2-3.7-.6c-1.1-.4-2.1-1-2.9-1.8-.8-.8-1.4-1.8-1.8-3.1-.4-1.3-.6-2.8-.6-4.6v-17.5h7.8v17.5c0,.7,0,1.3.3,1.8s.4.9.7,1.2c.3.3.7.5,1.1.7s1,.2,1.5.2c1.4,0,2.5-.3,3.3-.9.8-.6,1.3-1.3,1.7-2.3.3-1,.5-2.1.5-3.3ZM297.4,319.1v-20.5h7.8v27h-7.3l-.5-6.5Z"/>
        <path d="M309.2,312.4v-.5c0-2,.2-3.9.7-5.6.5-1.7,1.1-3.1,2-4.4.9-1.2,2-2.2,3.3-2.8,1.3-.7,2.8-1,4.5-1s2.9.3,4.1,1c1.2.7,2.2,1.7,3,2.9.8,1.2,1.5,2.7,2,4.4s.9,3.5,1.2,5.4v.9c-.2,1.9-.6,3.6-1.2,5.2-.5,1.6-1.2,3-2,4.3-.8,1.2-1.8,2.2-3,2.9s-2.5,1-4.1,1-3.2-.3-4.5-1-2.4-1.6-3.3-2.9c-.9-1.2-1.6-2.7-2-4.3s-.7-3.5-.7-5.4ZM317,311.9v.5c0,1.1,0,2.1.2,3s.4,1.7.8,2.4.8,1.2,1.4,1.6,1.3.6,2.2.6,2.1-.3,2.9-.8c.7-.5,1.3-1.3,1.7-2.3.4-1,.6-2.1.6-3.4v-2.6c0-1.1-.1-2-.3-2.9-.2-.8-.5-1.6-1-2.1-.4-.6-1-1-1.6-1.3s-1.4-.5-2.2-.5-1.6.2-2.2.6-1.1.9-1.5,1.6-.6,1.5-.8,2.5c-.2.9-.3,2-.3,3.1ZM326,319.6v-32.3h7.8v38.3h-7l-.8-6Z"/>
        <path d="M339,291.6c0-1.1.4-2.1,1.2-2.8.8-.7,1.8-1.1,3.1-1.1s2.3.4,3.2,1.1c.8.7,1.2,1.6,1.2,2.8s-.4,2-1.2,2.8c-.8.7-1.9,1.1-3.2,1.1s-2.3-.4-3.1-1.1c-.8-.7-1.2-1.6-1.2-2.8ZM347.3,298.6v27h-7.8v-27h7.8Z"/>
        <path d="M360.7,303.8v32.2h-7.8v-37.4h7.3l.5,5.2ZM377.5,311.8v.5c0,2-.2,3.8-.7,5.4-.4,1.7-1.1,3.1-2,4.4-.9,1.2-2,2.2-3.3,2.9s-2.8,1-4.5,1-3-.3-4.2-1-2.2-1.7-3-2.9c-.8-1.2-1.5-2.7-1.9-4.3s-.9-3.3-1.1-5.1v-1c.3-1.9.6-3.7,1.1-5.4.5-1.7,1.1-3.1,1.9-4.3s1.8-2.2,3-2.9c1.2-.7,2.6-1,4.2-1s3.2.3,4.5,1,2.4,1.6,3.3,2.8c.9,1.2,1.6,2.6,2,4.3.4,1.7.7,3.5.7,5.6ZM369.7,312.3v-.5c0-1.1,0-2.1-.2-3s-.4-1.7-.8-2.4c-.4-.7-.8-1.2-1.4-1.6-.6-.4-1.3-.6-2.2-.6s-1.7.1-2.4.4c-.6.3-1.2.7-1.6,1.3-.4.6-.7,1.3-.9,2.1s-.3,1.8-.3,2.8v2.7c0,1.2.2,2.4.5,3.3s.9,1.7,1.6,2.3c.7.5,1.7.8,3,.8s1.6-.2,2.2-.6,1.1-.9,1.4-1.7.6-1.5.8-2.5c.2-.9.2-1.9.2-3Z"/>
        <path d="M389.8,287.3v38.3h-7.8v-38.3h7.8Z"/>
        <path d="M401.1,298.6l5.6,19.2.9,8.3-5.3.3-9.7-27.7h8.4ZM403.5,322.5l7.1-23.9h8.4l-10.8,31c-.2.7-.5,1.4-.9,2.2s-.9,1.5-1.6,2.2c-.7.7-1.5,1.3-2.5,1.7-1,.4-2.3.7-3.7.7s-1.3,0-1.7-.1c-.4,0-.9-.2-1.6-.4v-5.7c.2,0,.4,0,.6,0,.2,0,.4,0,.5,0,.9,0,1.7,0,2.3-.3s1-.5,1.3-.9c.3-.4.6-.9.8-1.5l2-5.2Z"/>
      </g>
    </g>
    <g>
      <path d="M-208.8,338.8c2.4,12.5-5.5,24.6-17.9,27.4-13.8,3.1-31.9,5.4-52.9,5.4-100.7,0-152.5-62.7-152.5-145.6s70.9-154.7,159-154.7,36,2.2,49,5.2c12.8,3,20.7,16,17.4,28.7l-1.8,7.1c-3.2,12.4-15.7,19.9-28.2,17.1-9.7-2.2-20.8-3.7-33.3-3.7-52.3,0-92.9,31.5-92.9,96.4s34.6,95.1,93.3,95.1,21.9-1.2,32.1-3.2c12.8-2.5,25.1,5.8,27.6,18.6l1.2,6.2Z" fill="#26044f"/>
      <g>
        <g>
          <path d="M-432.9,292.3c-28.1,0-51-22.9-51-51s20.4-48.4,46.4-50.8c1.5-26.8,23.8-48.1,50.9-48.1s30.4,7.3,40,19.4c7-3.7,14.7-5.6,22.7-5.6,21.7,0,40.3,14.1,46.6,34.2,26.8,1.5,48.1,23.8,48.1,50.9s-22.9,51-51,51h-152.7Z" fill="#5d3fd3"/>
          <path d="M-386.6,149.8c16.2,0,30.4,8.9,37.9,22.1,6.9-5.2,15.5-8.3,24.9-8.3,20.4,0,37.4,14.8,40.7,34.3,1,0,2-.1,3-.1,24,0,43.5,19.5,43.5,43.5s-19.5,43.5-43.5,43.5h-152.7c-24,0-43.5-19.5-43.5-43.5s19.5-43.5,43.5-43.5,2,0,3,.1c-.2-1.5-.2-3-.2-4.5,0-24,19.5-43.5,43.5-43.5M-386.6,134.8c-29,0-53.2,21.3-57.8,49.1-26.8,5.3-47,29.1-47,57.4s26.3,58.5,58.5,58.5h152.7c32.3,0,58.5-26.3,58.5-58.5s-21.8-53.9-50.2-57.9c-8.5-20.7-28.8-34.8-52.1-34.8s-14.3,1.3-20.8,4c-10.9-11.2-26-17.7-41.9-17.7h0Z" fill="#fff"/>
        </g>
        <path d="M-368.9,159.5c-4-1.3-8.3-2-12.8-2-23.2,0-42,18.8-42,42s0,2.9.2,4.4c-1,0-1.9-.1-2.9-.1-23.2,0-42,18.8-42,42s2,14.8,5.6,20.9c-1.6-18.9,1.3-55.1,46.7-54.2-.5-12.4,1.7-51.2,47.2-52.9h0Z" fill="#e7d4ff"/>
        <path d="M-411.8,284.8h131.7c24,0,43.5-19.5,43.5-43.5s-.9-10.1-2.5-14.6c-28.6,56.4-125.4,51.4-172.7,58.2h0Z" fill="#430e83"/>
      </g>
    </g>
    <g>
      <path d="M887.1-48.8c2.4,12.5-5.5,24.6-17.9,27.4-13.8,3.1-31.9,5.4-52.9,5.4-100.7,0-152.5-62.7-152.5-145.6s70.9-154.7,159-154.7,36,2.2,49,5.2c12.8,3,20.7,16,17.4,28.7l-1.8,7.1c-3.2,12.4-15.7,19.9-28.2,17.1-9.7-2.2-20.8-3.7-33.3-3.7-52.3,0-92.9,31.5-92.9,96.4s34.6,95.1,93.3,95.1,21.9-1.2,32.1-3.2c12.8-2.5,25.1,5.8,27.6,18.6l1.2,6.2Z" fill="#26044f"/>
      <g>
        <path d="M950.5-184.9c-1,0-1.9,0-2.9.1-3.2-18.6-19.4-32.8-39-32.8s-17.2,3-23.8,8c-7.2-12.6-20.7-21.1-36.3-21.1-23,0-41.7,18.7-41.7,41.7s0,2.9.2,4.3c-.9,0-1.9,0-2.9,0-23,0-41.7,18.7-41.7,41.7s18.7,41.7,41.7,41.7h146.2c23,0,41.7-18.7,41.7-41.7s-18.7-41.7-41.7-41.7h0Z" fill="#5d3fd3"/>
        <path d="M865.5-221.5c-3.9-1.2-8-1.9-12.2-1.9-22.2,0-40.2,18-40.2,40.2s0,2.8.2,4.2c-.9,0-1.8,0-2.8,0-22.2,0-40.2,18-40.2,40.2s1.9,14.1,5.3,20c-1.5-18.1,1.2-52.8,44.7-51.9-.4-11.8,1.7-49,45.2-50.7h0Z" fill="#e7d4ff"/>
        <path d="M824.4-101.5h126.1c23,0,41.7-18.7,41.7-41.7s-.9-9.6-2.4-14c-27.4,54-120.1,49.2-165.3,55.7h0Z" fill="#430e83"/>
      </g>
    </g>
    <g>
      <path d="M355.1-47.9c-10.4,5.2-33.8,10.8-64.2,10.8-86.5,0-131-53.8-131-125.1s60.9-132.9,136.6-132.9,51.6,5.9,61.6,11.1l-11.5,44.9c-11.5-4.8-27.5-9.3-47.5-9.3-44.9,0-79.8,27.1-79.8,82.8s29.7,81.7,80.2,81.7,36-3.7,47.1-8.2l8.5,44.2Z" fill="#26044f"/>
      <g>
        <path d="M428.3-120.5c-1,0-1.9,0-2.9.1-3.2-18.6-19.4-32.8-39-32.8s-17.2,3-23.8,8c-7.2-12.6-20.7-21.1-36.3-21.1-23,0-41.7,18.7-41.7,41.7s0,2.9.2,4.3c-.9,0-1.9,0-2.9,0-23,0-41.7,18.7-41.7,41.7s18.7,41.7,41.7,41.7h146.2c23,0,41.7-18.7,41.7-41.7s-18.7-41.7-41.7-41.7h0Z" fill="#5d3fd3"/>
        <path d="M343.3-157.2c-3.9-1.2-8-1.9-12.2-1.9-22.2,0-40.2,18-40.2,40.2s0,2.8.2,4.2c-.9,0-1.8,0-2.8,0-22.2,0-40.2,18-40.2,40.2s1.9,14.1,5.3,20c-1.5-18.1,1.2-52.8,44.7-51.9-.4-11.8,1.7-49,45.2-50.7h0Z" fill="#e7d4ff"/>
        <path d="M302.2-37.2h126.1c23,0,41.7-18.7,41.7-41.7s-.9-9.6-2.4-14c-27.4,54-120.1,49.2-165.3,55.7h0Z" fill="#430e83"/>
      </g>
    </g>
    <g>
      <path d="M-108.2-195.1c-1.5,0-3,0-4.4.2-5-28.8-30-50.7-60.3-50.7s-26.6,4.6-36.8,12.3c-11.1-19.5-32-32.7-56.1-32.7-35.6,0-64.4,28.8-64.4,64.4s.1,4.5.3,6.7c-1.5,0-2.9-.2-4.4-.2-35.6,0-64.4,28.8-64.4,64.4s28.8,64.4,64.4,64.4H-108.2c35.6,0,64.4-28.8,64.4-64.4s-28.8-64.4-64.4-64.4h0Z" fill="#5d3fd3"/>
      <path d="M-239.6-251.7c-6-1.9-12.3-2.9-18.9-2.9-34.3,0-62.2,27.8-62.2,62.2s.1,4.3.3,6.4c-1.4,0-2.8-.1-4.3-.1-34.3,0-62.2,27.8-62.2,62.2s3,21.8,8.3,31c-2.4-28,1.9-81.6,69.1-80.3-.7-18.3,2.6-75.7,69.8-78.4h0Z" fill="#e7d4ff"/>
      <path d="M-303.1-66.2H-108.2c35.6,0,64.4-28.8,64.4-64.4s-1.3-14.9-3.7-21.7c-42.4,83.4-185.6,76-255.6,86.1h0Z" fill="#430e83"/>
    </g>
    <g>
      <g>
        <path d="M430.9,599.8c-1.5,0-3,0-4.4.2-5-28.8-30-50.7-60.3-50.7s-26.6,4.6-36.8,12.3c-11.1-19.5-32-32.7-56.1-32.7-35.6,0-64.4,28.8-64.4,64.4s.1,4.5.3,6.7c-1.5,0-2.9-.2-4.4-.2-35.6,0-64.4,28.8-64.4,64.4s28.8,64.4,64.4,64.4h226.1c35.6,0,64.4-28.8,64.4-64.4s-28.8-64.4-64.4-64.4h0Z" fill="#430e83"/>
        <path d="M299.5,543.2c-6-1.9-12.3-2.9-18.9-2.9-34.3,0-62.2,27.8-62.2,62.2s.1,4.3.3,6.4c-1.4,0-2.8-.1-4.3-.1-34.3,0-62.2,27.8-62.2,62.2s3,21.8,8.3,31c-2.4-28,1.9-81.6,69.1-80.3-.7-18.3,2.6-75.7,69.8-78.4h0Z" fill="#5d3fd3"/>
        <path d="M236,728.7h194.9c35.6,0,64.4-28.8,64.4-64.4s-1.3-14.9-3.7-21.7c-42.4,83.4-185.6,76-255.6,86.1h0Z" fill="#26044f"/>
      </g>
      <g>
        <path d="M496,680.5c-1.5,0-3,0-4.4.2-5-28.8-30-50.7-60.3-50.7s-26.6,4.6-36.8,12.3c-11.1-19.5-32-32.7-56.1-32.7-35.6,0-64.4,28.8-64.4,64.4s.1,4.5.3,6.7c-1.5,0-2.9-.2-4.4-.2-35.6,0-64.4,28.8-64.4,64.4s28.8,64.4,64.4,64.4h226.1c35.6,0,64.4-28.8,64.4-64.4s-28.8-64.4-64.4-64.4h0Z" fill="#5d3fd3"/>
        <path d="M364.6,623.9c-6-1.9-12.3-2.9-18.9-2.9-34.3,0-62.2,27.8-62.2,62.2s.1,4.3.3,6.4c-1.4,0-2.8-.1-4.3-.1-34.3,0-62.2,27.8-62.2,62.2s3,21.8,8.3,31c-2.4-28,1.9-81.6,69.1-80.3-.7-18.3,2.6-75.7,69.8-78.4h0Z" fill="#e7d4ff"/>
        <path d="M301.1,809.4h194.9c35.6,0,64.4-28.8,64.4-64.4s-1.3-14.9-3.7-21.7c-42.4,83.4-185.6,76-255.6,86.1h0Z" fill="#430e83"/>
      </g>
      <g>
        <path d="M365.5,680.9c-1.5,0-3,0-4.4.2-5-28.8-30-50.7-60.3-50.7s-26.6,4.6-36.8,12.3c-11.1-19.5-32-32.7-56.1-32.7-35.6,0-64.4,28.8-64.4,64.4s.1,4.5.3,6.7c-1.5,0-2.9-.2-4.4-.2-35.6,0-64.4,28.8-64.4,64.4s28.8,64.4,64.4,64.4h226.1c35.6,0,64.4-28.8,64.4-64.4s-28.8-64.4-64.4-64.4h0Z" fill="#e7d4ff"/>
        <path d="M234,624.3c-6-1.9-12.3-2.9-18.9-2.9-34.3,0-62.2,27.8-62.2,62.2s.1,4.3.3,6.4c-1.4,0-2.8-.1-4.3-.1-34.3,0-62.2,27.8-62.2,62.2s3,21.8,8.3,31c-2.4-28,1.9-81.6,69.1-80.3-.7-18.3,2.6-75.7,69.8-78.4h0Z" fill="#fff"/>
        <path d="M170.6,809.7h194.9c35.6,0,64.4-28.8,64.4-64.4s-1.3-14.9-3.7-21.7c-42.4,83.4-185.6,76-255.6,86.1h0Z" fill="#b2a4ff"/>
      </g>
    </g>
    <g>
      <path d="M-250.6,570.3c-1.5,0-3,0-4.4.2-5-28.8-30-50.7-60.3-50.7s-26.6,4.6-36.8,12.3c-11.1-19.5-32-32.7-56.1-32.7-35.6,0-64.4,28.8-64.4,64.4s.1,4.5.3,6.7c-1.5,0-2.9-.2-4.4-.2-35.6,0-64.4,28.8-64.4,64.4s28.8,64.4,64.4,64.4h226.1c35.6,0,64.4-28.8,64.4-64.4s-28.8-64.4-64.4-64.4h0Z" fill="#430e83"/>
      <path d="M-382.1,513.6c-6-1.9-12.3-2.9-18.9-2.9-34.3,0-62.2,27.8-62.2,62.2s.1,4.3.3,6.4c-1.4,0-2.8-.1-4.3-.1-34.3,0-62.2,27.8-62.2,62.2s3,21.8,8.3,31c-2.4-28,1.9-81.6,69.1-80.3-.7-18.3,2.6-75.7,69.8-78.4h0Z" fill="#5d3fd3"/>
      <path d="M-445.6,699.1h194.9c35.6,0,64.4-28.8,64.4-64.4s-1.3-14.9-3.7-21.7c-42.4,83.4-185.6,76-255.6,86.1h0Z" fill="#26044f"/>
    </g>
    <g>
      <path d="M-155.5,609.7c-1.5,0-3,0-4.4.2-5-28.8-30-50.7-60.3-50.7s-26.6,4.6-36.8,12.3c-11.1-19.5-32-32.7-56.1-32.7-35.6,0-64.4,28.8-64.4,64.4s.1,4.5.3,6.7c-1.5,0-2.9-.2-4.4-.2-35.6,0-64.4,28.8-64.4,64.4s28.8,64.4,64.4,64.4h226.1c35.6,0,64.4-28.8,64.4-64.4s-28.8-64.4-64.4-64.4h0Z" fill="#5d3fd3"/>
      <path d="M-286.9,553c-6-1.9-12.3-2.9-18.9-2.9-34.3,0-62.2,27.8-62.2,62.2s.1,4.3.3,6.4c-1.4,0-2.8-.1-4.3-.1-34.3,0-62.2,27.8-62.2,62.2s3,21.8,8.3,31c-2.4-28,1.9-81.6,69.1-80.3-.7-18.3,2.6-75.7,69.8-78.4h0Z" fill="#e7d4ff"/>
      <path d="M-350.4,738.5h194.9c35.6,0,64.4-28.8,64.4-64.4s-1.3-14.9-3.7-21.7c-42.4,83.4-185.6,76-255.6,86.1h0Z" fill="#430e83"/>
    </g>
    <g>
      <path d="M-59.2,648.7c-1.5,0-3,0-4.4.2-5-28.8-30-50.7-60.3-50.7s-26.6,4.6-36.8,12.3c-11.1-19.5-32-32.7-56.1-32.7-35.6,0-64.4,28.8-64.4,64.4s.1,4.5.3,6.7c-1.5,0-2.9-.2-4.4-.2-35.6,0-64.4,28.8-64.4,64.4s28.8,64.4,64.4,64.4H-59.2c35.6,0,64.4-28.8,64.4-64.4s-28.8-64.4-64.4-64.4h0Z" fill="#e7d4ff"/>
      <path d="M-190.6,592.1c-6-1.9-12.3-2.9-18.9-2.9-34.3,0-62.2,27.8-62.2,62.2s.1,4.3.3,6.4c-1.4,0-2.8-.1-4.3-.1-34.3,0-62.2,27.8-62.2,62.2s3,21.8,8.3,31c-2.4-28,1.9-81.6,69.1-80.3-.7-18.3,2.6-75.7,69.8-78.4h0Z" fill="#fff"/>
      <path d="M-254.1,777.6H-59.2c35.6,0,64.4-28.8,64.4-64.4s-1.3-14.9-3.7-21.7c-42.4,83.4-185.6,76-255.6,86.1h0Z" fill="#b2a4ff"/>
    </g>
    <g>
      <path d="M965.8,547.8c-1.5,0-3,0-4.4.2-5-28.8-30-50.7-60.3-50.7s-26.6,4.6-36.8,12.3c-11.1-19.5-32-32.7-56.1-32.7-35.6,0-64.4,28.8-64.4,64.4s.1,4.5.3,6.7c-1.5,0-2.9-.2-4.4-.2-35.6,0-64.4,28.8-64.4,64.4s28.8,64.4,64.4,64.4h226.1c35.6,0,64.4-28.8,64.4-64.4s-28.8-64.4-64.4-64.4h0Z" fill="#5d3fd3"/>
      <path d="M834.4,491.2c-6-1.9-12.3-2.9-18.9-2.9-34.3,0-62.2,27.8-62.2,62.2s.1,4.3.3,6.4c-1.4,0-2.8-.1-4.3-.1-34.3,0-62.2,27.8-62.2,62.2s3,21.8,8.3,31c-2.4-28,1.9-81.6,69.1-80.3-.7-18.3,2.6-75.7,69.8-78.4h0Z" fill="#e7d4ff"/>
      <path d="M770.9,676.6h194.9c35.6,0,64.4-28.8,64.4-64.4s-1.3-14.9-3.7-21.7c-42.4,83.4-185.6,76-255.6,86.1h0Z" fill="#430e83"/>
    </g>
    <g>
      <path d="M1119.8,614.8c-1.5,0-3,0-4.4.2-5-28.8-30-50.7-60.3-50.7s-26.6,4.6-36.8,12.3c-11.1-19.5-32-32.7-56.1-32.7-35.6,0-64.4,28.8-64.4,64.4s.1,4.5.3,6.7c-1.5,0-2.9-.2-4.4-.2-35.6,0-64.4,28.8-64.4,64.4s28.8,64.4,64.4,64.4h226.1c35.6,0,64.4-28.8,64.4-64.4s-28.8-64.4-64.4-64.4h0Z" fill="#e7d4ff"/>
      <path d="M988.4,558.2c-6-1.9-12.3-2.9-18.9-2.9-34.3,0-62.2,27.8-62.2,62.2s.1,4.3.3,6.4c-1.4,0-2.8-.1-4.3-.1-34.3,0-62.2,27.8-62.2,62.2s3,21.8,8.3,31c-2.4-28,1.9-81.6,69.1-80.3-.7-18.3,2.6-75.7,69.8-78.4h0Z" fill="#fff"/>
      <path d="M924.9,743.6h194.9c35.6,0,64.4-28.8,64.4-64.4s-1.3-14.9-3.7-21.7c-42.4,83.4-185.6,76-255.6,86.1h0Z" fill="#b2a4ff"/>
    </g>
    <text transform="translate(-332.7 -448.5)" font-family="MyriadPro-Bold, &apos;Myriad Pro&apos;" font-size="82.6" font-weight="700"><tspan x="0" y="0">Cloudiply™ - Logo Reference Sheet:</tspan></text>
    <g>
      <path d="M927.2,685.2c.8,0,1.6-.2,2.2-.5.6-.3,1.1-.8,1.4-1.3s.5-1.3.5-2.1h7.3c0,2-.5,3.7-1.5,5.2-1,1.5-2.4,2.7-4.1,3.5-1.7.8-3.6,1.3-5.7,1.3s-3.9-.3-5.5-1-2.9-1.7-3.9-2.9c-1-1.2-1.8-2.7-2.4-4.4s-.8-3.4-.8-5.4v-.6c0-1.9.3-3.7.8-5.4s1.3-3.1,2.4-4.4c1-1.2,2.3-2.2,3.9-2.9,1.6-.7,3.4-1,5.5-1s4.2.4,5.9,1.3c1.7.8,3,2.1,4,3.7,1,1.6,1.4,3.5,1.4,5.7h-7.3c0-.9-.2-1.6-.5-2.3s-.8-1.2-1.4-1.6c-.6-.4-1.4-.6-2.3-.6s-1.7.2-2.3.6c-.6.4-1.1,1-1.4,1.7-.3.7-.5,1.5-.6,2.4-.1.9-.2,1.9-.2,2.9v.6c0,1,0,2,.2,2.9.1.9.3,1.7.7,2.4s.8,1.2,1.4,1.6c.6.4,1.4.6,2.4.6Z"/>
      <path d="M950.7,652.5v38.3h-7.8v-38.3h7.8Z"/>
      <path d="M955.1,677.5v-.5c0-2,.3-3.8.8-5.5.6-1.7,1.4-3.1,2.5-4.4,1.1-1.2,2.4-2.2,4-2.9s3.4-1,5.5-1,3.9.3,5.5,1c1.6.7,3,1.7,4.1,2.9,1.1,1.2,1.9,2.7,2.5,4.4.6,1.7.8,3.5.8,5.5v.5c0,2-.3,3.8-.8,5.4-.6,1.7-1.4,3.1-2.5,4.4s-2.4,2.2-4,2.9c-1.6.7-3.4,1-5.5,1s-3.9-.3-5.5-1-3-1.6-4.1-2.9c-1.1-1.2-1.9-2.7-2.5-4.4-.6-1.7-.8-3.5-.8-5.4ZM963,677v.5c0,1.1,0,2.1.3,3,.2.9.5,1.7.9,2.4.4.7.9,1.2,1.6,1.6.7.4,1.5.6,2.4.6s1.7-.2,2.4-.6,1.2-.9,1.6-1.6c.4-.7.7-1.5.9-2.4.2-.9.3-1.9.3-3v-.5c0-1,0-2-.3-3-.2-.9-.5-1.7-.9-2.5-.4-.7-.9-1.3-1.6-1.7-.7-.4-1.5-.6-2.4-.6s-1.7.2-2.4.6c-.6.4-1.2,1-1.6,1.7-.4.7-.7,1.5-.9,2.5-.2.9-.3,1.9-.3,3Z"/>
      <path d="M1001.7,678.7h2.1c0,1.8-.2,3.4-.6,5-.4,1.5-1.1,2.9-1.9,4-.8,1.1-1.9,2-3.1,2.6s-2.7.9-4.3.9-2.5-.2-3.7-.6c-1.1-.4-2.1-1-2.9-1.8-.8-.8-1.4-1.8-1.8-3.1-.4-1.3-.6-2.8-.6-4.6v-17.5h7.8v17.5c0,.7,0,1.3.3,1.8s.4.9.7,1.2c.3.3.7.5,1.1.7s1,.2,1.5.2c1.4,0,2.5-.3,3.3-.9.8-.6,1.3-1.3,1.7-2.3.3-1,.5-2.1.5-3.3ZM1000.9,684.3v-20.5h7.8v27h-7.3l-.5-6.5Z"/>
      <path d="M1012.7,677.6v-.5c0-2,.2-3.9.7-5.6.5-1.7,1.1-3.1,2-4.4.9-1.2,2-2.2,3.3-2.8,1.3-.7,2.8-1,4.5-1s2.9.3,4.1,1c1.2.7,2.2,1.7,3,2.9.8,1.2,1.5,2.7,2,4.4s.9,3.5,1.2,5.4v.9c-.2,1.9-.6,3.6-1.2,5.2-.5,1.6-1.2,3-2,4.3-.8,1.2-1.8,2.2-3,2.9s-2.5,1-4.1,1-3.2-.3-4.5-1-2.4-1.6-3.3-2.9c-.9-1.2-1.6-2.7-2-4.3s-.7-3.5-.7-5.4ZM1020.5,677.1v.5c0,1.1,0,2.1.2,3s.4,1.7.8,2.4.8,1.2,1.4,1.6,1.3.6,2.2.6,2.1-.3,2.9-.8c.7-.5,1.3-1.3,1.7-2.3.4-1,.6-2.1.6-3.4v-2.6c0-1.1-.1-2-.3-2.9-.2-.8-.5-1.6-1-2.1-.4-.6-1-1-1.6-1.3s-1.4-.5-2.2-.5-1.6.2-2.2.6-1.1.9-1.5,1.6-.6,1.5-.8,2.5c-.2.9-.3,2-.3,3.1ZM1029.5,684.7v-32.3h7.8v38.3h-7l-.8-6Z"/>
      <path d="M1042.4,656.8c0-1.1.4-2.1,1.2-2.8.8-.7,1.8-1.1,3.1-1.1s2.3.4,3.2,1.1c.8.7,1.2,1.6,1.2,2.8s-.4,2-1.2,2.8c-.8.7-1.9,1.1-3.2,1.1s-2.3-.4-3.1-1.1c-.8-.7-1.2-1.6-1.2-2.8ZM1050.7,663.8v27h-7.8v-27h7.8Z"/>
      <path d="M1064.1,669v32.2h-7.8v-37.4h7.3l.5,5.2ZM1080.9,677v.5c0,2-.2,3.8-.7,5.4-.4,1.7-1.1,3.1-2,4.4-.9,1.2-2,2.2-3.3,2.9s-2.8,1-4.5,1-3-.3-4.2-1-2.2-1.7-3-2.9c-.8-1.2-1.5-2.7-1.9-4.3s-.9-3.3-1.1-5.1v-1c.3-1.9.6-3.7,1.1-5.4.5-1.7,1.1-3.1,1.9-4.3s1.8-2.2,3-2.9c1.2-.7,2.6-1,4.2-1s3.2.3,4.5,1,2.4,1.6,3.3,2.8c.9,1.2,1.6,2.6,2,4.3.4,1.7.7,3.5.7,5.6ZM1073.1,677.5v-.5c0-1.1,0-2.1-.2-3s-.4-1.7-.8-2.4c-.4-.7-.8-1.2-1.4-1.6-.6-.4-1.3-.6-2.2-.6s-1.7.1-2.4.4c-.6.3-1.2.7-1.6,1.3-.4.6-.7,1.3-.9,2.1s-.3,1.8-.3,2.8v2.7c0,1.2.2,2.4.5,3.3s.9,1.7,1.6,2.3c.7.5,1.7.8,3,.8s1.6-.2,2.2-.6,1.1-.9,1.4-1.7.6-1.5.8-2.5c.2-.9.2-1.9.2-3Z"/>
      <path d="M1093.2,652.5v38.3h-7.8v-38.3h7.8Z"/>
      <path d="M1104.6,663.8l5.6,19.2.9,8.3-5.3.3-9.7-27.7h8.4ZM1107,687.6l7.1-23.9h8.4l-10.8,31c-.2.7-.5,1.4-.9,2.2s-.9,1.5-1.6,2.2c-.7.7-1.5,1.3-2.5,1.7-1,.4-2.3.7-3.7.7s-1.3,0-1.7-.1c-.4,0-.9-.2-1.6-.4v-5.7c.2,0,.4,0,.6,0,.2,0,.4,0,.5,0,.9,0,1.7,0,2.3-.3s1-.5,1.3-.9c.3-.4.6-.9.8-1.5l2-5.2Z"/>
    </g>
    <g>
      <path d="M186,875.2c-4.4,0-8.2-.9-11.4-2.8-3.2-1.9-5.8-4.6-7.5-8.3-1.8-3.7-2.7-8.3-2.7-13.8s.9-10.2,2.7-14c1.8-3.8,4.3-6.7,7.5-8.7,3.2-2,7.1-3,11.4-3s8.2.9,11.2,2.8c3,1.9,5.3,4.8,7.1,8.7l-9.2,4.8c-.6-2.1-1.6-3.7-3-4.9s-3.4-1.9-6.1-1.9-5.6,1-7.5,3-2.8,5-2.8,8.9v7.8c0,3.8.9,6.8,2.8,8.8,1.9,2.1,4.4,3.1,7.5,3.1s4.7-.7,6.3-2.1c1.6-1.4,2.7-3.1,3.5-5.1l8.7,5c-1.8,3.7-4.2,6.6-7.2,8.6-3,2.1-6.7,3.1-11.2,3.1Z" fill="#26044f"/>
      <path d="M226.3,874.4h-4.7c-3.5,0-6.1-.9-7.8-2.6s-2.5-4.2-2.5-7.5v-41.7h10.4v43.8h4.6v8Z" fill="#26044f"/>
      <path d="M247.4,875.2c-3.6,0-6.7-.8-9.2-2.3-2.6-1.6-4.5-3.8-5.9-6.7-1.4-2.9-2.1-6.3-2.1-10.2s.7-7.4,2.1-10.2c1.4-2.8,3.3-5.1,5.9-6.6,2.6-1.6,5.6-2.3,9.2-2.3s6.7.8,9.2,2.3c2.6,1.6,4.5,3.8,5.9,6.6,1.4,2.8,2.1,6.3,2.1,10.2s-.7,7.3-2.1,10.2c-1.4,2.9-3.3,5.1-5.9,6.7-2.6,1.6-5.6,2.3-9.2,2.3ZM247.4,867c2.1,0,3.6-.6,4.8-1.9,1.1-1.3,1.7-3.1,1.7-5.4v-7.5c0-2.3-.6-4.1-1.7-5.4-1.1-1.3-2.7-1.9-4.8-1.9s-3.6.6-4.7,1.9c-1.1,1.3-1.7,3.1-1.7,5.4v7.5c0,2.3.6,4.1,1.7,5.4,1.1,1.3,2.7,1.9,4.7,1.9Z" fill="#26044f"/>
      <path d="M293.7,874.4v-6.2h-.3c-.6,1.9-1.7,3.5-3.3,4.9-1.6,1.4-3.9,2.1-7,2.1s-6.6-1.3-8.5-3.8c-2-2.5-2.9-6.1-2.9-10.7v-23.1h10.4v22.2c0,2.2.4,4,1.2,5.2.8,1.2,2.2,1.8,4,1.8s2.1-.2,3.1-.6c1-.4,1.8-1,2.4-1.8.6-.8.9-1.8.9-2.9v-23.9h10.4v36.8h-10.4Z" fill="#26044f"/>
      <path d="M336.2,874.4v-6.2h-.4c-.5,2-1.7,3.7-3.5,5-1.8,1.3-4,2-6.3,2s-5.7-.7-7.8-2.2c-2.1-1.5-3.7-3.6-4.8-6.5-1.1-2.9-1.6-6.4-1.6-10.5s.5-7.7,1.6-10.5c1.1-2.8,2.7-5,4.8-6.5,2.1-1.5,4.7-2.2,7.8-2.2s4.5.7,6.3,2c1.8,1.3,3,3,3.5,5h.4v-21.2h10.4v51.8h-10.4ZM329.4,866.8c1.3,0,2.5-.2,3.5-.6,1-.4,1.8-1,2.4-1.9.6-.8.9-1.8.9-2.9v-10.8c0-1.1-.3-2.1-.9-2.9-.6-.8-1.4-1.4-2.4-1.9-1-.4-2.2-.6-3.5-.6-2,0-3.6.7-4.9,2.1-1.3,1.4-1.9,3.2-1.9,5.6v6.4c0,2.3.6,4.1,1.9,5.5,1.3,1.4,2.9,2.1,4.9,2.1Z" fill="#26044f"/>
      <path d="M361.4,834.3c-2.1,0-3.6-.5-4.6-1.5-1-1-1.4-2.2-1.4-3.6v-1.5c0-1.5.5-2.7,1.4-3.7,1-1,2.5-1.4,4.6-1.4s3.6.5,4.6,1.4c1,1,1.4,2.2,1.4,3.7v1.5c0,1.4-.5,2.7-1.4,3.6-1,1-2.5,1.5-4.6,1.5ZM356.2,874.4v-36.8h10.4v36.8h-10.4Z" fill="#26044f"/>
      <path d="M376.3,888.4v-50.8h10.4v6.2h.3c.5-2.1,1.7-3.7,3.5-5,1.8-1.3,4-2,6.3-2s5.7.7,7.8,2.2c2.1,1.5,3.7,3.6,4.7,6.5,1.1,2.8,1.6,6.3,1.6,10.5s-.5,7.7-1.6,10.5c-1.1,2.9-2.7,5-4.7,6.5-2.1,1.5-4.7,2.2-7.8,2.2s-4.5-.7-6.3-2c-1.8-1.3-3-3-3.5-5h-.3v20.2h-10.4ZM393.4,866.8c2,0,3.6-.7,4.9-2.1,1.3-1.4,1.9-3.2,1.9-5.5v-6.4c0-2.3-.6-4.2-1.9-5.6-1.3-1.4-2.9-2.1-4.9-2.1s-2.5.2-3.5.6c-1,.4-1.8,1-2.4,1.9-.6.8-.9,1.8-.9,2.9v10.8c0,1.1.3,2.1.9,2.9.6.8,1.4,1.4,2.4,1.9,1,.4,2.2.6,3.5.6Z" fill="#26044f"/>
      <path d="M433.8,874.4h-4.7c-3.5,0-6.2-.9-7.8-2.6-1.7-1.7-2.5-4.2-2.5-7.5v-41.7h10.4v43.8h4.6v8Z" fill="#26044f"/>
      <path d="M456.7,854.8l5.4-17.2h9.7l-14.1,42.4c-.6,1.9-1.4,3.4-2.3,4.7-1,1.2-2.2,2.2-3.6,2.8s-3.2.9-5.3.9h-6.4v-8h6.9l1.3-4.1-12.9-38.6h10.3l5.4,17.2,2.7,10.6h.4l2.7-10.6Z" fill="#26044f"/>
    </g>
    <g>
      <path d="M-189.1,255.7h-4.7c-3.5,0-6.1-.9-7.8-2.6-1.7-1.7-2.5-4.2-2.5-7.5v-41.7h10.4v43.8h4.6v8Z" fill="#26044f"/>
      <path d="M-167.9,256.6c-3.6,0-6.7-.8-9.2-2.3-2.6-1.6-4.5-3.8-5.9-6.7-1.4-2.9-2.1-6.3-2.1-10.2s.7-7.4,2.1-10.2c1.4-2.8,3.3-5.1,5.9-6.6,2.6-1.6,5.6-2.3,9.2-2.3s6.7.8,9.2,2.3c2.6,1.6,4.5,3.8,5.9,6.6,1.4,2.8,2.1,6.3,2.1,10.2s-.7,7.3-2.1,10.2c-1.4,2.9-3.3,5.1-5.9,6.7-2.6,1.6-5.6,2.3-9.2,2.3ZM-167.9,248.4c2.1,0,3.6-.6,4.8-1.9,1.1-1.3,1.7-3.1,1.7-5.4v-7.5c0-2.3-.6-4.1-1.7-5.4s-2.7-1.9-4.8-1.9-3.6.6-4.7,1.9-1.7,3.1-1.7,5.4v7.5c0,2.3.6,4.1,1.7,5.4,1.1,1.3,2.7,1.9,4.7,1.9Z" fill="#26044f"/>
      <path d="M-121.7,255.7v-6.2h-.4c-.6,1.9-1.7,3.5-3.3,4.9-1.6,1.4-3.9,2.1-7,2.1s-6.6-1.3-8.5-3.8c-2-2.5-2.9-6.1-2.9-10.7v-23.1h10.4v22.2c0,2.2.4,4,1.2,5.2.8,1.2,2.2,1.8,4,1.8s2.1-.2,3.1-.6c1-.4,1.8-1,2.5-1.8.6-.8.9-1.8.9-2.9v-23.9h10.4v36.8h-10.4Z" fill="#26044f"/>
      <path d="M-79.1,255.7v-6.2h-.4c-.5,2-1.7,3.7-3.5,5-1.8,1.3-4,2-6.3,2s-5.7-.7-7.8-2.2c-2.1-1.5-3.7-3.6-4.8-6.5-1.1-2.9-1.6-6.4-1.6-10.5s.5-7.7,1.6-10.5c1.1-2.8,2.7-5,4.8-6.5,2.1-1.5,4.7-2.2,7.8-2.2s4.5.7,6.3,2c1.8,1.3,3,3,3.5,5h.4v-21.2h10.4v51.8h-10.4ZM-85.9,248.2c1.3,0,2.5-.2,3.5-.6,1-.4,1.8-1,2.4-1.9.6-.8.9-1.8.9-2.9v-10.8c0-1.1-.3-2.1-.9-2.9-.6-.8-1.4-1.4-2.4-1.9-1-.4-2.2-.6-3.5-.6-2,0-3.6.7-4.9,2.1-1.3,1.4-1.9,3.2-1.9,5.6v6.4c0,2.3.6,4.1,1.9,5.5,1.3,1.4,2.9,2.1,4.9,2.1Z" fill="#26044f"/>
      <path d="M-53.9,215.7c-2.1,0-3.6-.5-4.6-1.5-1-1-1.4-2.2-1.4-3.6v-1.5c0-1.5.5-2.7,1.4-3.7s2.5-1.4,4.6-1.4,3.6.5,4.6,1.4c1,1,1.4,2.2,1.4,3.7v1.5c0,1.4-.5,2.7-1.4,3.6-1,1-2.5,1.5-4.6,1.5ZM-59.1,255.7v-36.8h10.4v36.8h-10.4Z" fill="#26044f"/>
      <path d="M-39.1,269.7v-50.8h10.4v6.2h.3c.5-2.1,1.7-3.7,3.5-5,1.8-1.3,4-2,6.3-2s5.7.7,7.8,2.2c2.1,1.5,3.7,3.6,4.7,6.5,1.1,2.8,1.6,6.3,1.6,10.5s-.5,7.7-1.6,10.5c-1.1,2.9-2.6,5-4.7,6.5-2.1,1.5-4.7,2.2-7.8,2.2s-4.5-.7-6.3-2c-1.8-1.3-3-3-3.5-5h-.3v20.2h-10.4ZM-21.9,248.2c2,0,3.6-.7,4.9-2.1,1.3-1.4,1.9-3.2,1.9-5.5v-6.4c0-2.3-.6-4.2-1.9-5.6-1.3-1.4-2.9-2.1-4.9-2.1s-2.5.2-3.5.6c-1,.4-1.8,1-2.4,1.9-.6.8-.9,1.8-.9,2.9v10.8c0,1.1.3,2.1.9,2.9.6.8,1.4,1.4,2.4,1.9,1,.4,2.2.6,3.5.6Z" fill="#26044f"/>
      <path d="M18.5,255.7h-4.7c-3.5,0-6.1-.9-7.8-2.6-1.7-1.7-2.5-4.2-2.5-7.5v-41.7h10.4v43.8h4.6v8Z" fill="#26044f"/>
      <path d="M41.4,236.1l5.4-17.2h9.7l-14.1,42.4c-.6,1.9-1.4,3.4-2.3,4.7-1,1.2-2.2,2.2-3.6,2.8-1.4.6-3.2.9-5.3.9h-6.4v-8h6.9l1.3-4.1-12.9-38.6h10.3l5.4,17.2,2.7,10.6h.4l2.7-10.6Z" fill="#26044f"/>
    </g>
  </g>
</svg>